<svg width="20" height="20" viewBox="0 0 20 20" fill="none" xmlns="http://www.w3.org/2000/svg">
<path d="M16 13.798C16 14.014 15.9519 14.236 15.8498 14.452C15.7476 14.668 15.6154 14.872 15.4412 15.064C15.1467 15.388 14.8222 15.622 14.4557 15.772C14.0951 15.922 13.7046 16 13.2839 16C12.671 16 12.016 15.856 11.325 15.562C10.634 15.268 9.94291 14.872 9.25789 14.374C8.56685 13.87 7.91187 13.312 7.28693 12.694C6.668 12.07 6.10916 11.416 5.61042 10.732C5.11768 10.048 4.72108 9.364 4.43265 8.686C4.14422 8.002 4 7.348 4 6.724C4 6.316 4.07211 5.926 4.21632 5.566C4.36054 5.2 4.58888 4.864 4.90736 4.564C5.29194 4.186 5.71257 4 6.15724 4C6.32549 4 6.49374 4.036 6.64397 4.108C6.8002 4.18 6.93841 4.288 7.04657 4.444L8.44066 6.406C8.54882 6.556 8.62694 6.694 8.68102 6.826C8.7351 6.952 8.76515 7.078 8.76515 7.192C8.76515 7.336 8.72308 7.48 8.63896 7.618C8.56084 7.756 8.44667 7.9 8.30245 8.044L7.84577 8.518C7.77967 8.584 7.74962 8.662 7.74962 8.758C7.74962 8.806 7.75563 8.848 7.76765 8.896C7.78568 8.944 7.80371 8.98 7.81572 9.016C7.92389 9.214 8.11017 9.472 8.37456 9.784C8.64497 10.096 8.9334 10.414 9.24587 10.732C9.57036 11.05 9.88282 11.344 10.2013 11.614C10.5138 11.878 10.7722 12.058 10.9765 12.166C11.0065 12.178 11.0426 12.196 11.0846 12.214C11.1327 12.232 11.1808 12.238 11.2349 12.238C11.337 12.238 11.4151 12.202 11.4812 12.136L11.9379 11.686C12.0881 11.536 12.2323 11.422 12.3706 11.35C12.5088 11.266 12.647 11.224 12.7972 11.224C12.9114 11.224 13.0315 11.248 13.1637 11.302C13.2959 11.356 13.4342 11.434 13.5844 11.536L15.5734 12.946C15.7296 13.054 15.8378 13.18 15.9039 13.33C15.9639 13.48 16 13.63 16 13.798Z" stroke="#212121" stroke-width="1.5" stroke-miterlimit="10"/>
<path d="M14 8C14 7.65714 13.7314 7.13143 13.3314 6.70286C12.9657 6.30857 12.48 6 12 6" stroke="#212121" stroke-width="1.5" stroke-linecap="round" stroke-linejoin="round"/>
<path d="M16 8C16 5.78857 14.2114 4 12 4" stroke="#212121" stroke-width="1.5" stroke-linecap="round" stroke-linejoin="round"/>
</svg>
