<svg width="20" height="20" viewBox="0 0 20 20" fill="none" xmlns="http://www.w3.org/2000/svg">
<path d="M17.5 6.66667L14.5327 8.31518C12.8783 9.23425 12.0512 9.69383 11.1752 9.874C10.3998 10.0334 9.60017 10.0334 8.82483 9.874C7.94887 9.69383 7.12169 9.23425 5.46733 8.31518L2.5 6.66667M5.16667 15.8333H14.8333C15.7667 15.8333 16.2335 15.8333 16.59 15.6517C16.9036 15.4919 17.1586 15.2369 17.3183 14.9233C17.5 14.5668 17.5 14.1001 17.5 13.1667V6.83333C17.5 5.89992 17.5 5.4332 17.3183 5.07668C17.1586 4.76307 16.9036 4.50811 16.59 4.34832C16.2335 4.16667 15.7667 4.16667 14.8333 4.16667H5.16667C4.23325 4.16667 3.76653 4.16667 3.41002 4.34832C3.09641 4.50811 2.84144 4.76307 2.68166 5.07668C2.5 5.4332 2.5 5.89991 2.5 6.83333V13.1667C2.5 14.1001 2.5 14.5668 2.68166 14.9233C2.84144 15.2369 3.09641 15.4919 3.41002 15.6517C3.76653 15.8333 4.23324 15.8333 5.16667 15.8333Z" stroke="#212121" stroke-width="1.5" stroke-linecap="round" stroke-linejoin="round"/>
</svg>
