<svg width="24" height="24" viewBox="0 0 24 24" fill="none" xmlns="http://www.w3.org/2000/svg">
<path fill-rule="evenodd" clip-rule="evenodd" d="M17.4413 18.7227C19.6535 18.8032 21.5136 17.0784 21.6 14.8664V9.13903C21.5136 6.92706 19.6535 5.20217 17.4413 5.28271H6.55871C4.34652 5.20217 2.48637 6.92706 2.39999 9.13903V14.8664C2.48637 17.0784 4.34652 18.8032 6.55871 18.7227H17.4413Z" stroke="#ffffff" stroke-width="1.5" stroke-linecap="round" stroke-linejoin="round"/>
<path fill-rule="evenodd" clip-rule="evenodd" d="M11.5277 9.29073L14.5622 11.3528C14.7588 11.4676 14.8797 11.6781 14.8797 11.9057C14.8797 12.1334 14.7588 12.344 14.5622 12.4587L11.5277 14.7147C10.9517 15.1054 10.08 14.7723 10.08 14.1617V9.84177C10.08 9.23409 10.9526 8.90001 11.5277 9.29073Z" stroke="#ffffff" stroke-width="1.5" stroke-linecap="round" stroke-linejoin="round"/>
</svg>
