<svg xmlns="http://www.w3.org/2000/svg" xmlns:xlink="http://www.w3.org/1999/xlink" viewBox="0 0 1201.02 800.39"><defs><style>.cls-1,.cls-8{fill:none;}.cls-2,.cls-32{opacity:0.2;}.cls-3,.cls-4,.cls-42,.cls-43,.cls-44{fill:#01afb8;}.cls-3{opacity:0.43;}.cls-5{fill:#dcffff;}.cls-6{fill:#9dede9;}.cls-7{opacity:0.25;}.cls-8{stroke:#fff;stroke-linejoin:round;stroke-width:1.42px;}.cls-24,.cls-8{stroke-linecap:round;}.cls-9{fill:#78d1cf;}.cls-10{fill:#079e9e;}.cls-11{fill:#2c4d60;}.cls-12{fill:#04a5a5;}.cls-13{fill:#1ee2e2;}.cls-14,.cls-15,.cls-24,.cls-32,.cls-33{fill:#fff;}.cls-14{opacity:0.3;}.cls-16{fill:#12c6c6;}.cls-17{fill:#376277;}.cls-18{fill:#264656;}.cls-19{fill:#008989;}.cls-20{fill:#0d9995;}.cls-21{fill:#17aaa3;}.cls-22{fill:#497687;}.cls-23{fill:#3c6275;}.cls-24{stroke:#231f20;stroke-miterlimit:10;stroke-width:2.04px;}.cls-25{clip-path:url(#clip-path);}.cls-26{fill:#ffccaf;}.cls-27{fill:#281968;}.cls-28{fill:#00c2f0;}.cls-29{fill:#ffa180;}.cls-30{fill:#065c6c;}.cls-31{fill:#004d59;}.cls-33,.cls-43{opacity:0.08;}.cls-34{fill:#ffd864;}.cls-35{fill:#ffc700;}.cls-36{fill:#2d1857;}.cls-37{fill:#4f4896;}.cls-38{fill:#00b1da;}.cls-39{fill:#0682ce;}.cls-40{fill:#38ef33;}.cls-41{fill:#22e046;}.cls-42{opacity:0.1;}.cls-44{opacity:0.05;}</style><clipPath id="clip-path"><circle class="cls-1" cx="588.18" cy="258.54" r="109.9" transform="translate(-10.54 491.63) rotate(-45)"/></clipPath></defs><g id="Layer_2" data-name="Layer 2"><g id="OBJECTS"><g class="cls-2"><path class="cls-3" d="M570.11,165,480.37,263v163.1H422.55V192.4h-14.7L366,153.28,323.89,192.4H309.43V507.84H96.7V679.65H710.3V297.28H570.11ZM407.85,381.15H324.13V372.6h83.72Zm0-17.07H324.13v-8.55h83.72Zm0-17.06H324.13v-8.53h83.72Zm0-17.07H324.13v-8.53h83.72Zm0-17.05H324.13v-8.55h83.72Zm0-17.06H324.13v-8.55h83.72Zm0-17.07H324.13v-8.53h83.72Zm0-17.06H324.13v-8.54h83.72Zm0-17.07H324.13v-8.53h83.72Zm0-17H324.13V219h83.72Zm0-17.06H324.13V202h83.72ZM558.73,626.17H550V206.25l8.69-9.52Z"/><path class="cls-3" d="M1062.62,507.84V192.4h-14.7l-41.86-39.11L964,192.4H949.51V507.84H736.77V679.65h321.39v.66h83.5V507.84Zm-14.7-126.69H964.21V372.6h83.71Zm0-17.07H964.21v-8.54h83.71Zm0-17.07H964.21v-8.52h83.71Zm0-17.06H964.21v-8.53h83.71Zm0-17.05H964.21v-8.54h83.71Zm0-17.07H964.21v-8.54h83.71Zm0-17.06H964.21v-8.53h83.71Zm0-17.07H964.21v-8.52h83.71Zm0-17.06H964.21v-8.53h83.71Zm0-17H964.21v-8.54h83.71Zm0-17.07H964.21V202h83.71Z"/><path class="cls-4" d="M970.51,519.56V220.5H957V190.24H857.09V220.5h-13.4v376H745.86V426.21H603.39V649.63H534.55V249.42H394.22V556.9H377.74v-183H352.36l-70.77-37.37v37.37H266.11V599.92H231.74V293.79H197V186.4h-4.76V293.79H157.48V680.31h905.14V519.56ZM223.37,490.5H166v-6.66h57.34Zm0-15.4H166v-6.65h57.34Zm0-15.41H166V453h57.34Zm0-15.4H166v-6.65h57.34Zm0-15.39H166v-6.66h57.34Zm0-15.42H166v-6.65h57.34Zm0-15.39H166v-6.66h57.34Zm0-15.4H166V376h57.34Zm0-15.41H166v-6.66h57.34Zm0-15.4H166v-6.65h57.34Zm0-15.39H166v-6.66h57.34Zm0-15.42H166v-6.65h57.34Zm0-15.39H166V299h57.34Zm201.08,91.67H407.37V380.3h17.08Zm0-28.44H407.37V351.84h17.08Zm0-28.46H407.37V323.4h17.08Zm0-28.44H407.37V294.93h17.08Zm0-28.47H407.37V266.47h17.08Zm32.42,113.81H439.82V380.3h17.05Zm0-28.44H439.82V351.84h17.05Zm0-28.46H439.82V323.4h17.05Zm0-28.44H439.82V294.93h17.05Zm0-28.47H439.82V266.47h17.05Zm32.45,113.81H472.24V380.3h17.08Zm0-28.44H472.24V351.84h17.08Zm0-28.46H472.24V323.4h17.08Zm0-28.44H472.24V294.93h17.08Zm0-28.47H472.24V266.47h17.08Zm32.42,113.81H504.69V380.3h17.05Zm0-28.44H504.69V351.84h17.05Zm0-28.46H504.69V323.4h17.05Zm0-28.44H504.69V294.93h17.05Zm466.51,348.3H970.51V642.57h17.74Zm0-35.53H970.51V607h17.74Zm0-35.52H970.51V571.52h17.74Zm0-35.53H970.51V536h17.74Zm32.92,106.58h-17.74V642.57h17.74Zm0-35.53h-17.74V607h17.74Zm0-35.52h-17.74V571.52h17.74Zm0-35.53h-17.74V536h17.74Zm32.92,106.58h-17.76V642.57h17.76Zm0-35.53h-17.76V607h17.76Zm0-35.52h-17.76V571.52h17.76Zm0-35.53h-17.76V536h17.76Z"/><path class="cls-4" d="M950.87,249.41H810.53V556.9H794.05v-183H768.68l-70.79-37.37v37.37H682.42V599.92H648.06V293.8H613.3V186.39h-4.75V293.8H573.79V680.31H950.55ZM639.68,490.5H582.35v-6.66h57.33Zm0-15.4H582.35v-6.66h57.33Zm0-15.42H582.35V453h57.33Zm0-15.38H582.35v-6.66h57.33Zm0-15.4H582.35v-6.66h57.33Zm0-15.42H582.35v-6.66h57.33Zm0-15.39H582.35v-6.66h57.33Zm0-15.4H582.35V376h57.33Zm0-15.42H582.35v-6.65h57.33Zm0-15.4H582.35v-6.64h57.33Zm0-15.38H582.35v-6.66h57.33Zm0-15.42H582.35v-6.66h57.33Zm0-15.4H582.35V299h57.33Zm201.08,91.68H823.67V380.3h17.09Zm0-28.45H823.67V351.84h17.09Zm0-28.44H823.67V323.39h17.09Zm0-28.45H823.67V294.93h17.09Zm0-28.47H823.67V266.46h17.09Zm32.41,113.81h-17V380.3h17Zm0-28.45h-17V351.84h17Zm0-28.44h-17V323.39h17Zm0-28.45h-17V294.93h17Zm0-28.47h-17V266.46h17Zm32.45,113.81H888.56V380.3h17.06Zm0-28.45H888.56V351.84h17.06Zm0-28.44H888.56V323.39h17.06Zm0-28.45H888.56V294.93h17.06Zm0-28.47H888.56V266.46h17.06Zm32.44,113.81H921V380.3h17Zm0-28.45H921V351.84h17Zm0-28.44H921V323.39h17Zm0-28.45H921V294.93h17Z"/><rect class="cls-5" x="504.68" y="607.92" width="17.07" height="17.07"/><rect class="cls-5" x="407.37" y="636.37" width="17.07" height="17.07"/><rect class="cls-5" x="439.81" y="636.37" width="17.07" height="17.07"/><rect class="cls-5" x="472.24" y="636.37" width="17.07" height="17.07"/><rect class="cls-5" x="504.68" y="636.37" width="17.07" height="17.07"/><rect class="cls-5" x="504.68" y="323.39" width="17.07" height="17.07"/><rect class="cls-5" x="407.37" y="351.84" width="17.07" height="17.07"/><rect class="cls-5" x="439.81" y="351.84" width="17.07" height="17.07"/><rect class="cls-5" x="472.24" y="351.84" width="17.07" height="17.07"/><rect class="cls-5" x="504.68" y="351.84" width="17.07" height="17.07"/><rect class="cls-5" x="407.37" y="380.29" width="17.07" height="17.07"/><rect class="cls-5" x="439.81" y="380.29" width="17.07" height="17.07"/><rect class="cls-5" x="472.24" y="380.29" width="17.07" height="17.07"/><rect class="cls-5" x="504.68" y="380.29" width="17.07" height="17.07"/><rect class="cls-5" x="407.37" y="408.74" width="17.07" height="17.07"/><rect class="cls-5" x="439.81" y="408.74" width="17.07" height="17.07"/><rect class="cls-5" x="472.24" y="408.74" width="17.07" height="17.07"/><rect class="cls-5" x="504.68" y="408.74" width="17.07" height="17.07"/><rect class="cls-5" x="407.37" y="437.2" width="17.07" height="17.07"/><rect class="cls-5" x="439.81" y="437.2" width="17.07" height="17.07"/><rect class="cls-5" x="472.24" y="437.2" width="17.07" height="17.07"/><rect class="cls-5" x="504.68" y="437.2" width="17.07" height="17.07"/><rect class="cls-5" x="407.37" y="465.65" width="17.07" height="17.07"/><rect class="cls-5" x="439.81" y="465.65" width="17.07" height="17.07"/><rect class="cls-5" x="472.24" y="465.65" width="17.07" height="17.07"/><rect class="cls-5" x="504.68" y="465.65" width="17.07" height="17.07"/><rect class="cls-5" x="407.37" y="494.1" width="17.07" height="17.07"/><rect class="cls-5" x="439.81" y="494.1" width="17.07" height="17.07"/><rect class="cls-5" x="472.24" y="494.1" width="17.07" height="17.07"/><rect class="cls-5" x="504.68" y="494.1" width="17.07" height="17.07"/><rect class="cls-5" x="407.37" y="522.56" width="17.07" height="17.07"/><rect class="cls-5" x="439.81" y="522.56" width="17.07" height="17.07"/><rect class="cls-5" x="472.24" y="522.56" width="17.07" height="17.07"/><rect class="cls-5" x="504.68" y="522.56" width="17.07" height="17.07"/><rect class="cls-5" x="407.37" y="551.01" width="17.07" height="17.07"/><rect class="cls-5" x="439.81" y="551.01" width="17.07" height="17.07"/><rect class="cls-5" x="472.24" y="551.01" width="17.07" height="17.07"/><rect class="cls-5" x="504.68" y="551.01" width="17.07" height="17.07"/><rect class="cls-5" x="407.37" y="579.46" width="17.07" height="17.07"/><rect class="cls-5" x="439.81" y="579.46" width="17.07" height="17.07"/><rect class="cls-5" x="472.24" y="579.46" width="17.07" height="17.07"/><rect class="cls-5" x="504.68" y="579.46" width="17.07" height="17.07"/><rect class="cls-5" x="407.37" y="607.92" width="17.07" height="17.07"/><rect class="cls-5" x="439.81" y="607.92" width="17.07" height="17.07"/><rect class="cls-5" x="472.24" y="607.92" width="17.07" height="17.07"/><rect class="cls-5" x="407.37" y="266.47" width="17.07" height="17.07"/><rect class="cls-5" x="439.81" y="266.47" width="17.07" height="17.07"/><rect class="cls-5" x="472.24" y="266.47" width="17.07" height="17.07"/><rect class="cls-5" x="407.37" y="294.93" width="17.07" height="17.07"/><rect class="cls-5" x="439.81" y="294.93" width="17.07" height="17.07"/><rect class="cls-5" x="472.24" y="294.93" width="17.07" height="17.07"/><rect class="cls-5" x="504.68" y="294.93" width="17.07" height="17.07"/><rect class="cls-5" x="407.37" y="323.39" width="17.07" height="17.07"/><rect class="cls-5" x="439.81" y="323.39" width="17.07" height="17.07"/><rect class="cls-5" x="472.24" y="323.39" width="17.07" height="17.07"/></g><path class="cls-6" d="M566.88,619c-3.57-5.73-7.23-11.74-7.82-18.46-.55-6.22-1.57-13.1-.62-19.28a50.76,50.76,0,0,0-.85-18.62c-4.29-19.14-12.33-17-15.25-15.55s-4.22,4.58-4.35,9.64c-.11,4.06,2.83,23.08-3.39,20.3-7.19-3.22-7.08-23.1-8.25-29.71-1.75-9.89-5.87-20.45-13.5-27.28-3.76-3.37-9.27-5.82-13.78-3.56-2.7,1.35-4.43,4.12-5.39,7-2.87,8.63.18,17.56,3.61,25.53,1.43,3.34,13,18.72,3.54,17.28-2.27-.34-21.29-15-23,.35-.61,5.41,5.47,10.91,15.12,17.78,6,4.29,28.29,15.44,27.21,21.42s-13.43-3.47-11.9,7.65c.86,6.23,9.09,10.67,14.66,13,2.65,1.1,5.52,1.67,8.09,2.94,3,1.51,6.8,5.19,4.51,8.81-1,1.58-3,2.39-3.91,4a5.35,5.35,0,0,0,.38,5.42,12.34,12.34,0,0,0,4.24,3.74c10.44,6.3,23.48,7.24,35.43,4.78s23-8.05,33.59-14.15"/><g class="cls-7"><path class="cls-8" d="M505.05,526.8S518.1,591.88,558,632.22"/><path class="cls-8" d="M487.32,569.9s22.22,17.08,40.41,19.43"/><path class="cls-8" d="M545.75,555.15c1.23,10.24,2.35,38.84-7.25,52.71"/><path class="cls-8" d="M516.4,615.52S525.13,623,552,625.8"/><path class="cls-8" d="M536.86,643.93s13.88,2.34,26.16-5"/></g><path class="cls-6" d="M609.35,491.14c-3.56-5.72-7.23-11.73-7.82-18.45-.55-6.23-1.56-13.1-.62-19.28a50.6,50.6,0,0,0-.85-18.63c-4.29-19.13-12.32-17-15.24-15.55s-4.22,4.59-4.36,9.64c-.11,4.07,2.83,23.09-3.39,20.3-7.19-3.21-7.07-23.09-8.25-29.7-1.75-9.9-5.87-20.45-13.49-27.28-3.76-3.37-9.27-5.82-13.79-3.57-2.7,1.35-4.43,4.13-5.38,7-2.88,8.63.17,17.56,3.6,25.53,1.44,3.33,13,18.72,3.54,17.28-2.27-.34-21.29-15-23,.34-.61,5.41,5.47,10.92,15.12,17.78,6,4.29,28.29,15.44,27.22,21.43s-13.44-3.48-11.9,7.65c.86,6.23,9.08,10.66,14.65,13,2.66,1.1,5.52,1.67,8.09,2.94,3.06,1.51,6.81,5.18,4.51,8.81-1,1.58-3,2.38-3.91,4a5.33,5.33,0,0,0,.38,5.41,12.24,12.24,0,0,0,4.24,3.74c10.45,6.31,23.49,7.25,35.44,4.79s23-8,33.58-14.15"/><g class="cls-7"><path class="cls-8" d="M547.52,399s13.06,65.08,52.9,105.42"/><path class="cls-8" d="M529.79,442.08S552,459.16,570.2,461.51"/><path class="cls-8" d="M588.22,427.34c1.23,10.23,2.35,38.83-7.25,52.7"/><path class="cls-8" d="M558.87,487.7s8.73,7.44,35.61,10.29"/><path class="cls-8" d="M579.33,516.12s13.88,2.33,26.16-5"/></g><path class="cls-9" d="M588.16,616.39c-1.37-7.77-15.69-56.64-40.81-43.66-14.93,7.71-12.25,36.09,11.07,57.54-4.58-4.43-9.86-9.45-16.11-10.69-3.37-.67-7.5.89-10,3.22-2.25,2.07-2.91,5.35-3,8.41A33.12,33.12,0,0,0,544,659.53c-5.15-2.88-9.62-6.49-15.51-7-1.91-.16-5.15.93-6,2.63-1,1.86-.9,8.8,10.45,14-46.27-8.77-49,11-32.34,11H637"/><path class="cls-9" d="M1086.62,616.6c1.37-7.78,15.69-56.64,40.81-43.67,14.93,7.71,12.24,36.1-11.07,57.54,4.58-4.43,9.86-9.45,16.1-10.69,3.38-.66,7.5.89,10,3.22,2.25,2.08,2.91,5.35,3,8.41a33.14,33.14,0,0,1-14.74,28.33c5.15-2.89,9.62-6.49,15.5-7,1.92-.16,5.16.93,6,2.64s.9,8.8-10.45,14c46.26-8.78,49,10.94,32.33,10.94H1064.27"/><path class="cls-6" d="M1073.83,595.33c2.9-6.09,5.87-12.47,5.71-19.21-.16-6.25.08-13.19-1.54-19.23a50.43,50.43,0,0,1-1.24-18.6c2.11-19.5,10.34-18.29,13.4-17.16s4.71,4.08,5.41,9.09c.57,4-.23,23.25,5.64,19.79,6.79-4,4.45-23.74,4.87-30.44.63-10,3.55-21,10.36-28.62,3.36-3.77,8.56-6.82,13.3-5.08,2.83,1,4.86,3.6,6.13,6.34,3.83,8.26,1.8,17.47-.72,25.78-1.06,3.47-10.86,20.06-1.58,17.57,2.22-.6,19.47-17.31,22.92-2.24,1.21,5.31-4.22,11.46-13,19.36-5.5,4.94-26.38,18.51-24.64,24.34s13-5,12.68,6.27c-.16,6.29-7.83,11.61-13.11,14.53-2.51,1.4-5.29,2.28-7.71,3.83-2.87,1.84-6.18,5.92-3.49,9.26,1.17,1.46,3.2,2,4.33,3.54a5.33,5.33,0,0,1,.23,5.42,12.38,12.38,0,0,1-3.8,4.19c-9.67,7.44-22.52,9.83-34.67,8.73s-23.78-5.43-35-10.31"/><g class="cls-7"><path class="cls-8" d="M1125,496.83s-5.69,66.14-40.77,110.69"/><path class="cls-8" d="M1147.4,537.67s-20.17,19.46-38,23.83"/><path class="cls-8" d="M1087.69,529.56c-.08,10.31,2,38.86,13.1,51.57"/><path class="cls-8" d="M1123.61,586.26s-7.84,8.37-34.23,14.21"/><path class="cls-8" d="M1106.46,616.79s-13.54,3.88-26.56-2"/></g><path class="cls-9" d="M180.2,680.31a33.83,33.83,0,0,0-8.87-24.24,35.54,35.54,0,0,1,14.23,12.56s5.64-16.56,15.26-17.38a44.86,44.86,0,0,0-10.7,29.06"/><path class="cls-9" d="M280.17,680.31a22.41,22.41,0,0,0-5.88-16.09,23.59,23.59,0,0,1,9.44,8.33s3.75-11,10.13-11.53a29.8,29.8,0,0,0-7.1,19.29"/><path class="cls-9" d="M466.12,680.31A35.23,35.23,0,0,0,456.87,655a37.09,37.09,0,0,1,14.84,13.09s5.87-17.26,15.9-18.11a46.76,46.76,0,0,0-11.15,30.29"/><rect class="cls-4" x="595.25" y="272.56" width="472.25" height="203.17"/><rect class="cls-10" x="595.25" y="283.55" width="17.98" height="13.18"/><rect class="cls-10" x="595.25" y="303.05" width="12.95" height="13.18"/><rect class="cls-10" x="595.25" y="322.55" width="17.98" height="13.18"/><rect class="cls-10" x="595.25" y="342.05" width="12.95" height="13.18"/><rect class="cls-10" x="595.25" y="361.54" width="17.98" height="13.18"/><rect class="cls-10" x="595.25" y="381.04" width="12.95" height="13.18"/><rect class="cls-10" x="595.25" y="400.54" width="17.98" height="13.18"/><rect class="cls-10" x="595.25" y="420.04" width="12.95" height="13.18"/><rect class="cls-10" x="595.25" y="439.54" width="17.98" height="13.18"/><rect class="cls-10" x="1049.52" y="283.55" width="17.98" height="13.18"/><rect class="cls-10" x="1054.55" y="303.05" width="12.95" height="13.18"/><rect class="cls-10" x="1049.52" y="322.55" width="17.98" height="13.18"/><rect class="cls-10" x="1054.55" y="342.05" width="12.95" height="13.18"/><rect class="cls-10" x="1049.52" y="361.54" width="17.98" height="13.18"/><rect class="cls-10" x="1054.55" y="381.04" width="12.95" height="13.18"/><rect class="cls-10" x="1049.52" y="400.54" width="17.98" height="13.18"/><rect class="cls-10" x="1054.55" y="420.04" width="12.95" height="13.18"/><rect class="cls-10" x="1049.52" y="439.54" width="17.98" height="13.18"/><rect class="cls-4" x="585.18" y="475.53" width="496.65" height="204.42"/><rect class="cls-11" x="575.7" y="655.71" width="515.61" height="24.24"/><line class="cls-11" x1="1111.79" y1="476.78" x2="1091.31" y2="452.54"/><rect class="cls-12" x="649.05" y="291.35" width="74.02" height="89.77"/><rect class="cls-13" x="652.48" y="294.71" width="67.16" height="83.21"/><polygon class="cls-14" points="714.24 291.35 649.05 356.54 649.05 338.38 696.06 291.35 714.24 291.35"/><polygon class="cls-14" points="723.07 291.35 723.07 293.36 649.05 367.38 649.05 361.2 718.9 291.35 723.07 291.35"/><polygon class="cls-14" points="723.07 320.08 723.07 338.22 680.17 381.12 662.03 381.12 723.07 320.08"/><polygon class="cls-14" points="723.07 342.88 723.07 349.08 691.03 381.12 684.83 381.12 723.07 342.88"/><rect class="cls-15" x="646.79" y="381.12" width="78.54" height="4.25"/><rect class="cls-15" x="646.79" y="287.43" width="78.54" height="4.25"/><rect class="cls-15" x="639.55" y="333.79" width="93.02" height="4.25" transform="translate(1021.98 -350.14) rotate(90)"/><rect class="cls-15" x="644.88" y="385.37" width="82.36" height="4.25"/><rect class="cls-11" x="644.88" y="389.65" width="82.36" height="3.65"/><rect class="cls-12" x="794.37" y="291.35" width="74.02" height="89.77"/><rect class="cls-13" x="797.8" y="294.71" width="67.16" height="83.21"/><polygon class="cls-14" points="859.56 291.35 794.37 356.54 794.37 338.38 841.37 291.35 859.56 291.35"/><polygon class="cls-14" points="868.38 291.35 868.38 293.36 794.37 367.38 794.37 361.2 864.21 291.35 868.38 291.35"/><polygon class="cls-14" points="868.38 320.08 868.38 338.22 825.48 381.12 807.34 381.12 868.38 320.08"/><polygon class="cls-14" points="868.38 342.88 868.38 349.08 836.34 381.12 830.14 381.12 868.38 342.88"/><rect class="cls-15" x="792.11" y="381.12" width="78.54" height="4.25"/><rect class="cls-15" x="792.11" y="287.43" width="78.54" height="4.25"/><rect class="cls-15" x="784.87" y="333.79" width="93.02" height="4.25" transform="translate(1167.3 -495.46) rotate(90)"/><rect class="cls-15" x="790.2" y="385.37" width="82.36" height="4.25"/><rect class="cls-11" x="790.2" y="389.65" width="82.36" height="3.65"/><rect class="cls-12" x="939.68" y="291.35" width="74.02" height="89.77"/><rect class="cls-13" x="943.11" y="294.71" width="67.16" height="83.21"/><polygon class="cls-14" points="1004.87 291.35 939.68 356.54 939.68 338.38 986.69 291.35 1004.87 291.35"/><polygon class="cls-14" points="1013.7 291.35 1013.7 293.36 939.68 367.38 939.68 361.2 1009.53 291.35 1013.7 291.35"/><polygon class="cls-14" points="1013.7 320.08 1013.7 338.22 970.8 381.12 952.66 381.12 1013.7 320.08"/><polygon class="cls-14" points="1013.7 342.88 1013.7 349.08 981.66 381.12 975.46 381.12 1013.7 342.88"/><rect class="cls-15" x="937.42" y="381.12" width="78.54" height="4.25"/><rect class="cls-15" x="937.42" y="287.43" width="78.54" height="4.25"/><rect class="cls-15" x="930.18" y="333.79" width="93.02" height="4.25" transform="translate(1312.61 -640.77) rotate(90)"/><rect class="cls-15" x="935.51" y="385.37" width="82.36" height="4.25"/><rect class="cls-11" x="935.51" y="389.65" width="82.36" height="3.65"/><rect class="cls-10" x="585.18" y="480.84" width="17.98" height="13.18"/><rect class="cls-10" x="585.18" y="500.34" width="12.95" height="13.18"/><rect class="cls-10" x="585.18" y="519.84" width="17.98" height="13.18"/><rect class="cls-10" x="585.18" y="539.34" width="12.95" height="13.18"/><rect class="cls-10" x="585.18" y="558.84" width="17.98" height="13.18"/><rect class="cls-10" x="585.18" y="578.34" width="12.95" height="13.18"/><rect class="cls-10" x="585.18" y="597.84" width="17.98" height="13.18"/><rect class="cls-10" x="585.18" y="617.34" width="12.95" height="13.18"/><rect class="cls-10" x="585.18" y="636.84" width="17.98" height="13.18"/><rect class="cls-10" x="1063.85" y="636.84" width="17.98" height="13.18"/><rect class="cls-10" x="1068.87" y="617.34" width="12.95" height="13.18"/><rect class="cls-10" x="1063.85" y="597.84" width="17.98" height="13.18"/><rect class="cls-10" x="1068.87" y="578.34" width="12.95" height="13.18"/><rect class="cls-10" x="1063.85" y="558.84" width="17.98" height="13.18"/><rect class="cls-10" x="1068.87" y="539.34" width="12.95" height="13.18"/><rect class="cls-10" x="1063.85" y="519.84" width="17.98" height="13.18"/><rect class="cls-10" x="1068.87" y="500.34" width="12.95" height="13.18"/><rect class="cls-10" x="1063.85" y="480.84" width="17.98" height="13.18"/><rect class="cls-12" x="859.5" y="504.73" width="182.06" height="111.17"/><rect class="cls-13" x="863.75" y="508.89" width="173.57" height="103.05"/><polygon class="cls-14" points="945.49 504.73 864.76 585.46 864.76 562.97 922.97 504.73 945.49 504.73"/><polygon class="cls-14" points="958.93 504.73 864.77 598.87 864.77 591.22 951.26 504.73 958.93 504.73"/><polygon class="cls-14" points="1036.29 540.31 1036.29 562.78 983.17 615.91 960.7 615.91 1036.29 540.31"/><polygon class="cls-14" points="1036.29 568.54 1036.29 576.22 996.61 615.91 988.93 615.91 1036.29 568.54"/><rect class="cls-15" x="856.7" y="615.9" width="187.66" height="5.26"/><rect class="cls-15" x="856.7" y="499.87" width="187.66" height="5.27"/><rect class="cls-15" x="863.46" y="557.29" width="115.2" height="5.26" transform="translate(1480.98 -361.14) rotate(90)"/><rect class="cls-15" x="804.53" y="557.29" width="115.2" height="5.26" transform="translate(1422.05 -302.21) rotate(90)"/><rect class="cls-15" x="922.39" y="557.29" width="115.2" height="5.26" transform="translate(1539.92 -420.07) rotate(90)"/><rect class="cls-15" x="981.33" y="557.29" width="115.2" height="5.26" transform="translate(1598.85 -479) rotate(90)"/><rect class="cls-15" x="854.33" y="621.17" width="192.39" height="5.27"/><rect class="cls-11" x="854.33" y="626.47" width="192.39" height="4.52"/><rect class="cls-16" x="919.74" y="426.63" width="61.56" height="3.45"/><rect class="cls-16" x="919.74" y="434.21" width="61.56" height="3.45"/><rect class="cls-16" x="903.46" y="441.78" width="92.83" height="3.45"/><rect class="cls-16" x="888.82" y="449.35" width="118.97" height="3.45"/><rect class="cls-16" x="877.27" y="456.93" width="148.84" height="3.45"/><rect class="cls-16" x="862.13" y="464.5" width="177.31" height="3.45"/><rect class="cls-16" x="846.53" y="472.07" width="209.36" height="3.45"/><polygon class="cls-17" points="575.7 476.44 683.82 414.25 935.51 414.25 816.59 476.44 575.7 476.44"/><polygon class="cls-11" points="1049.17 452.21 949.76 395.03 842.17 452.21 575.7 452.21 575.7 476.44 847.66 476.44 949.76 423.22 1051.87 476.44 1051.92 476.44 1091.3 476.44 1091.3 452.21 1049.17 452.21"/><rect class="cls-18" x="936.51" y="175.89" width="57.95" height="69.19"/><rect class="cls-11" x="932.85" y="162.38" width="65.27" height="13.5"/><polygon class="cls-11" points="587.98 272.88 833.5 144.91 1079.03 272.88 587.98 272.88"/><rect class="cls-10" x="667.91" y="496.89" width="109.97" height="158.82"/><rect class="cls-19" x="669.66" y="499.14" width="106.37" height="156.57"/><rect class="cls-20" x="679.96" y="512.09" width="85.77" height="130.43"/><rect class="cls-19" x="718.69" y="506.93" width="8.3" height="139.83"/><rect class="cls-19" x="718.6" y="505.66" width="8.3" height="97.1" transform="translate(1276.96 -168.54) rotate(90)"/><rect class="cls-19" x="718.6" y="551.94" width="8.3" height="97.1" transform="translate(1323.24 -122.26) rotate(90)"/><rect class="cls-21" x="682.64" y="514.72" width="33.36" height="32.71"/><rect class="cls-21" x="682.64" y="561.07" width="33.36" height="32.7"/><rect class="cls-21" x="682.64" y="607.42" width="33.36" height="32.71"/><rect class="cls-21" x="729.74" y="514.72" width="33.36" height="32.71"/><rect class="cls-21" x="729.74" y="561.07" width="33.36" height="32.7"/><rect class="cls-21" x="729.74" y="607.42" width="33.36" height="32.71"/><path class="cls-11" d="M774.73,576.9a3.83,3.83,0,1,1-3.82-3.83A3.82,3.82,0,0,1,774.73,576.9Z"/><rect class="cls-11" x="601.86" y="471.08" width="12.7" height="187.4"/><rect class="cls-11" x="835.42" y="471.08" width="12.7" height="187.4"/><rect class="cls-11" x="1051.82" y="471.08" width="12.7" height="187.4"/><rect class="cls-22" x="660.38" y="655.71" width="124.93" height="12.12"/><rect class="cls-23" x="655.23" y="667.83" width="135.23" height="12.12"/><path class="cls-11" d="M660.89,596a4.07,4.07,0,1,0-5.86,3.63v58.89h3.58V599.59A4,4,0,0,0,660.89,596Z"/><path class="cls-11" d="M793.44,596a4.07,4.07,0,1,0-5.85,3.63v58.89h3.57V599.59A4,4,0,0,0,793.44,596Z"/><line class="cls-24" x1="72.34" y1="680.31" x2="1200" y2="680.31"/><line class="cls-24" x1="64.29" y1="680.31" x2="10.59" y2="680.31"/><path class="cls-4" d="M562.18,545.18a2.79,2.79,0,1,1-2.78-2.79A2.79,2.79,0,0,1,562.18,545.18Z"/><path class="cls-4" d="M722.9,131.84a2.79,2.79,0,1,1-2.79-2.78A2.79,2.79,0,0,1,722.9,131.84Z"/><path class="cls-4" d="M720.11,197a2.79,2.79,0,1,1-2.78-2.78A2.78,2.78,0,0,1,720.11,197Z"/><path class="cls-4" d="M877.21,95.38a2.79,2.79,0,1,1-2.78-2.79A2.78,2.78,0,0,1,877.21,95.38Z"/><path class="cls-4" d="M1076.09,216.26a2.79,2.79,0,1,1-2.79-2.79A2.79,2.79,0,0,1,1076.09,216.26Z"/><path class="cls-4" d="M1093.74,397.36H1091v-2.77a1.1,1.1,0,0,0-2.19,0v2.77H1086a1.1,1.1,0,0,0,0,2.19h2.77v2.76a1.1,1.1,0,0,0,2.19,0v-2.76h2.76a1.1,1.1,0,1,0,0-2.19Z"/><path class="cls-4" d="M537.71,503.32H535v-2.77a1.1,1.1,0,0,0-2.19,0v2.77H530a1.1,1.1,0,0,0,0,2.19h2.77v2.76a1.1,1.1,0,0,0,2.19,0v-2.76h2.76a1.1,1.1,0,1,0,0-2.19Z"/><path class="cls-4" d="M1133.77,350.74H1131V348a1.1,1.1,0,0,0-2.19,0v2.76h-2.77a1.1,1.1,0,0,0,0,2.19h2.77v2.77a1.1,1.1,0,0,0,2.19,0v-2.77h2.76a1.1,1.1,0,1,0,0-2.19Z"/><path class="cls-4" d="M1099,495.74h-2.76V493a1.1,1.1,0,0,0-2.19,0v2.77h-2.77a1.1,1.1,0,0,0,0,2.19H1094v2.76a1.1,1.1,0,1,0,2.19,0v-2.76H1099a1.1,1.1,0,1,0,0-2.19Z"/><path class="cls-4" d="M961.77,152.56H959v-2.77a1.1,1.1,0,1,0-2.19,0v2.77h-2.77a1.09,1.09,0,1,0,0,2.18h2.77v2.77a1.1,1.1,0,0,0,2.19,0v-2.77h2.76a1.09,1.09,0,1,0,0-2.18Z"/><g class="cls-25"><rect class="cls-4" x="559.89" y="264.88" width="539.46" height="232.08"/><rect class="cls-10" x="559.89" y="277.44" width="20.54" height="15.05"/><rect class="cls-10" x="559.89" y="299.71" width="14.8" height="15.05"/><rect class="cls-10" x="559.89" y="321.99" width="20.54" height="15.05"/><rect class="cls-10" x="559.89" y="344.26" width="14.8" height="15.05"/><rect class="cls-10" x="559.89" y="366.54" width="20.54" height="15.05"/><rect class="cls-10" x="559.89" y="388.81" width="14.8" height="15.05"/><rect class="cls-10" x="559.89" y="411.09" width="20.54" height="15.05"/><rect class="cls-10" x="559.89" y="433.36" width="14.8" height="15.05"/><rect class="cls-10" x="559.89" y="455.64" width="20.54" height="15.05"/><rect class="cls-10" x="1078.8" y="277.44" width="20.54" height="15.05"/><rect class="cls-10" x="1084.55" y="299.71" width="14.8" height="15.05"/><rect class="cls-10" x="1078.8" y="321.99" width="20.54" height="15.05"/><rect class="cls-10" x="1084.55" y="344.26" width="14.8" height="15.05"/><rect class="cls-10" x="1078.8" y="366.54" width="20.54" height="15.05"/><rect class="cls-10" x="1084.55" y="388.81" width="14.8" height="15.05"/><rect class="cls-10" x="1078.8" y="411.09" width="20.54" height="15.05"/><rect class="cls-10" x="1084.55" y="433.36" width="14.8" height="15.05"/><rect class="cls-10" x="1078.8" y="455.64" width="20.54" height="15.05"/><rect class="cls-4" x="548.38" y="496.74" width="567.33" height="233.52"/><rect class="cls-11" x="537.55" y="702.57" width="588.99" height="27.69"/><line class="cls-11" x1="1149.94" y1="498.17" x2="1126.54" y2="470.48"/><rect class="cls-12" x="621.35" y="286.35" width="84.55" height="102.55"/><rect class="cls-13" x="625.27" y="290.19" width="76.71" height="95.06"/><polygon class="cls-14" points="695.81 286.35 621.35 360.82 621.35 340.07 675.04 286.35 695.81 286.35"/><polygon class="cls-14" points="705.89 286.35 705.89 288.65 621.35 373.2 621.35 366.14 701.13 286.35 705.89 286.35"/><polygon class="cls-14" points="705.89 319.17 705.89 339.9 656.89 388.9 636.17 388.9 705.89 319.17"/><polygon class="cls-14" points="705.89 345.21 705.89 352.3 669.29 388.9 662.21 388.9 705.89 345.21"/><rect class="cls-15" x="618.77" y="388.9" width="89.71" height="4.86"/><rect class="cls-15" x="618.77" y="281.87" width="89.71" height="4.86"/><rect class="cls-15" x="610.49" y="334.83" width="106.26" height="4.86" transform="translate(1000.88 -326.36) rotate(90)"/><rect class="cls-15" x="616.58" y="393.75" width="94.08" height="4.86"/><rect class="cls-11" x="616.58" y="398.64" width="94.08" height="4.17"/><rect class="cls-12" x="787.34" y="286.35" width="84.55" height="102.55"/><rect class="cls-13" x="791.26" y="290.19" width="76.71" height="95.06"/><polygon class="cls-14" points="861.81 286.35 787.34 360.82 787.34 340.07 841.03 286.35 861.81 286.35"/><polygon class="cls-14" points="871.89 286.35 871.89 288.65 787.34 373.2 787.34 366.14 867.13 286.35 871.89 286.35"/><polygon class="cls-14" points="871.89 319.17 871.89 339.9 822.88 388.9 802.16 388.9 871.89 319.17"/><polygon class="cls-14" points="871.89 345.21 871.89 352.3 835.29 388.9 828.2 388.9 871.89 345.21"/><rect class="cls-15" x="784.76" y="388.9" width="89.71" height="4.86"/><rect class="cls-15" x="784.76" y="281.87" width="89.71" height="4.86"/><rect class="cls-15" x="776.49" y="334.83" width="106.26" height="4.86" transform="translate(1166.88 -492.36) rotate(90)"/><rect class="cls-15" x="782.58" y="393.75" width="94.08" height="4.86"/><rect class="cls-11" x="782.58" y="398.64" width="94.08" height="4.17"/><rect class="cls-12" x="953.34" y="286.35" width="84.55" height="102.55"/><rect class="cls-13" x="957.26" y="290.19" width="76.71" height="95.06"/><polygon class="cls-14" points="1027.8 286.35 953.34 360.82 953.34 340.07 1007.03 286.35 1027.8 286.35"/><polygon class="cls-14" points="1037.88 286.35 1037.88 288.65 953.34 373.2 953.34 366.14 1033.12 286.35 1037.88 286.35"/><polygon class="cls-14" points="1037.88 319.17 1037.88 339.9 988.88 388.9 968.16 388.9 1037.88 319.17"/><polygon class="cls-14" points="1037.88 345.21 1037.88 352.3 1001.28 388.9 994.2 388.9 1037.88 345.21"/><rect class="cls-15" x="950.76" y="388.9" width="89.71" height="4.86"/><rect class="cls-15" x="950.76" y="281.87" width="89.71" height="4.86"/><rect class="cls-15" x="942.48" y="334.83" width="106.26" height="4.86" transform="translate(1332.87 -658.35) rotate(90)"/><rect class="cls-15" x="948.57" y="393.75" width="94.08" height="4.86"/><rect class="cls-11" x="948.57" y="398.64" width="94.08" height="4.17"/><rect class="cls-10" x="548.38" y="502.81" width="20.54" height="15.05"/><rect class="cls-10" x="548.38" y="525.08" width="14.8" height="15.05"/><rect class="cls-10" x="548.38" y="547.36" width="20.54" height="15.05"/><rect class="cls-10" x="548.38" y="569.63" width="14.8" height="15.05"/><rect class="cls-10" x="548.38" y="591.91" width="20.54" height="15.05"/><rect class="cls-10" x="548.38" y="614.18" width="14.8" height="15.05"/><rect class="cls-10" x="548.38" y="636.46" width="20.54" height="15.05"/><rect class="cls-10" x="548.38" y="658.73" width="14.8" height="15.05"/><rect class="cls-10" x="548.38" y="681.01" width="20.54" height="15.05"/><rect class="cls-10" x="1095.17" y="681.01" width="20.54" height="15.05"/><rect class="cls-10" x="1100.91" y="658.73" width="14.8" height="15.05"/><rect class="cls-10" x="1095.17" y="636.46" width="20.54" height="15.05"/><rect class="cls-10" x="1100.91" y="614.18" width="14.8" height="15.05"/><rect class="cls-10" x="1095.17" y="591.91" width="20.54" height="15.05"/><rect class="cls-10" x="1100.91" y="569.63" width="14.8" height="15.05"/><rect class="cls-10" x="1095.17" y="547.36" width="20.54" height="15.05"/><rect class="cls-10" x="1100.91" y="525.08" width="14.8" height="15.05"/><rect class="cls-10" x="1095.17" y="502.81" width="20.54" height="15.05"/><rect class="cls-12" x="861.74" y="530.1" width="207.97" height="127"/><rect class="cls-13" x="866.59" y="534.85" width="198.27" height="117.72"/><polygon class="cls-14" points="959.97 530.1 867.75 622.32 867.75 596.63 934.25 530.1 959.97 530.1"/><polygon class="cls-14" points="975.33 530.1 867.76 637.64 867.76 628.9 966.56 530.1 975.33 530.1"/><polygon class="cls-14" points="1063.7 570.75 1063.7 596.41 1003.01 657.1 977.35 657.1 1063.7 570.75"/><polygon class="cls-14" points="1063.7 603 1063.7 611.77 1018.37 657.1 1009.6 657.1 1063.7 603"/><rect class="cls-15" x="858.54" y="657.09" width="214.37" height="6.01"/><rect class="cls-15" x="858.54" y="524.55" width="214.37" height="6.01"/><rect class="cls-15" x="866.27" y="590.14" width="131.59" height="6.01" transform="translate(1525.21 -338.92) rotate(90)"/><rect class="cls-15" x="798.95" y="590.14" width="131.59" height="6.01" transform="translate(1457.89 -271.6) rotate(90)"/><rect class="cls-15" x="933.59" y="590.14" width="131.59" height="6.01" transform="translate(1592.53 -406.24) rotate(90)"/><rect class="cls-15" x="1000.91" y="590.14" width="131.59" height="6.01" transform="translate(1659.85 -473.56) rotate(90)"/><rect class="cls-15" x="855.84" y="663.11" width="219.77" height="6.01"/><rect class="cls-11" x="855.84" y="669.16" width="219.77" height="5.16"/><rect class="cls-16" x="930.56" y="440.89" width="70.33" height="3.94"/><rect class="cls-16" x="930.56" y="449.54" width="70.33" height="3.94"/><rect class="cls-16" x="911.96" y="458.19" width="106.04" height="3.94"/><rect class="cls-16" x="895.23" y="466.84" width="135.91" height="3.94"/><rect class="cls-16" x="882.04" y="475.49" width="170.03" height="3.94"/><rect class="cls-16" x="864.75" y="484.14" width="202.55" height="3.94"/><rect class="cls-16" x="846.92" y="492.79" width="239.15" height="3.94"/><polygon class="cls-17" points="537.55 497.78 661.06 426.75 948.57 426.75 812.73 497.78 537.55 497.78"/><polygon class="cls-11" points="1078.41 470.1 964.85 404.79 841.94 470.1 537.55 470.1 537.55 497.78 848.22 497.78 964.85 436.99 1081.49 497.78 1081.55 497.78 1126.53 497.78 1126.53 470.1 1078.41 470.1"/><rect class="cls-18" x="949.72" y="154.45" width="66.2" height="79.04"/><rect class="cls-11" x="945.54" y="139.03" width="74.56" height="15.43"/><polygon class="cls-11" points="551.58 265.25 832.04 119.07 1112.51 265.25 551.58 265.25"/><rect class="cls-10" x="642.88" y="521.14" width="125.62" height="181.43"/><rect class="cls-19" x="644.88" y="523.71" width="121.5" height="178.86"/><rect class="cls-20" x="656.65" y="538.5" width="97.98" height="148.99"/><rect class="cls-19" x="700.89" y="532.61" width="9.48" height="159.73"/><rect class="cls-19" x="700.79" y="531.16" width="9.48" height="110.92" transform="translate(1292.15 -118.91) rotate(90)"/><rect class="cls-19" x="700.79" y="584.02" width="9.48" height="110.92" transform="translate(1345.01 -66.04) rotate(90)"/><rect class="cls-21" x="659.72" y="541.51" width="38.11" height="37.36"/><rect class="cls-21" x="659.72" y="594.46" width="38.11" height="37.36"/><rect class="cls-21" x="659.72" y="647.41" width="38.11" height="37.36"/><rect class="cls-21" x="713.51" y="541.51" width="38.11" height="37.36"/><rect class="cls-21" x="713.51" y="594.46" width="38.11" height="37.36"/><rect class="cls-21" x="713.51" y="647.41" width="38.11" height="37.36"/><path class="cls-11" d="M764.91,612.54a4.37,4.37,0,1,1-4.37-4.37A4.37,4.37,0,0,1,764.91,612.54Z"/><rect class="cls-11" x="567.44" y="491.66" width="14.5" height="214.07"/><rect class="cls-11" x="834.24" y="491.66" width="14.5" height="214.07"/><rect class="cls-11" x="1081.44" y="491.66" width="14.5" height="214.07"/><rect class="cls-22" x="634.28" y="702.57" width="142.71" height="13.84"/><rect class="cls-23" x="628.4" y="716.41" width="154.48" height="13.84"/><path class="cls-11" d="M634.87,634.31a4.65,4.65,0,1,0-6.69,4.15v67.27h4.09V638.46A4.64,4.64,0,0,0,634.87,634.31Z"/><path class="cls-11" d="M786.28,634.31a4.65,4.65,0,1,0-6.69,4.15v67.27h4.09V638.46A4.62,4.62,0,0,0,786.28,634.31Z"/></g><path class="cls-26" d="M406.26,768.56l1.46,13.79s5.29,4.39,10.66,4.29c2.17,0,5.88-2.39,5.88-4.29V767.59"/><path class="cls-26" d="M298.91,758.3l-4.48,13.12s-2.68,2.8-1.07,4.84c1.33,1.69,6.72,2.56,8.94,3.54,2,.87,6.34.3,7.14-1.43L315.65,765"/><path class="cls-27" d="M335.93,568s-14.79-43.48,27.18-79.31c0,0,22.49,9,40.5,10,14.18.85,21.38-.46,21.38-.46s1.19,38.64,1.24,59.46Z"/><path class="cls-27" d="M429.61,638.17h0l1.57-.68-4.95-85.4-.23,0c-.26-6.12-.47-10.52-.57-12-.49-6.83-1.64-16.79-4.93-18C404.27,516,375.81,536.77,379,561.84l-3.61.75s9.9,55.87,21.6,89.71h0s-5.94,19.56,7.22,116.86a40.39,40.39,0,0,0,7.42,1.11,42.87,42.87,0,0,0,11.36-.73,33.69,33.69,0,0,0,3.37-.9S430.25,658,431.19,637.5Z"/><path class="cls-27" d="M386.8,568s-19.15,76.17-22.63,89.14c-3.08,11.5-39.52,90.47-47.9,108.16-9.32-1.14-15.58-5.08-18.85-6.74.78-4.31,2.13-11.16,4.1-19.82,5.16-22.57,14.53-57.55,29.37-92.31,0,0-.39-58.48,2.72-102.71l6.85,2.72c9.91-17.9,32.9-24.13,44-13.91,2.59,2.39,3.16,15.83,1.06,22.34-.41,1.33-1.45,5.42-2.88,11.18Z"/><path class="cls-28" d="M447.94,391.32A287,287,0,0,0,432.68,366l-16.45,51.18s6-2.5,10.14,5.29c.88,1.64,1.76,3.26,2.64,4.88,6.09-2,18.68-6.62,29-13.9C454.55,405.27,450.87,397,447.94,391.32Z"/><path class="cls-26" d="M468,439.23c-1-3.21-6.22-13.71-11-25.14a132.12,132.12,0,0,1-24.1,11.9c7.32,13.51,14,24.5,22.13,34.25C449.77,443.88,468,439.23,468,439.23Z"/><path class="cls-26" d="M499,392.73s13.53,8.58,11.4,10.66S473.34,458,462.74,458.8c-4.37.33-10-4.87-11.2-10.42-.43-2.07-.77-4.22-1.05-6.41C454.84,425.33,499,392.73,499,392.73Z"/><path class="cls-29" d="M520.17,380.05a21.49,21.49,0,0,1,1,7.24l-3-3.62Z"/><path class="cls-28" d="M432.11,365.4c-4.4-3.65-8.07-4.17-21.23-6.11-3.29-.14-7.26-.92-11.92-.77-13.34.42-49.64,2.62-53.7,11.54-2.07,4.56-4.3,51.24-1.26,67.34,2.28,12.1,5.83,42.59,5.83,49.83s-1.6,9.83.22,11.93c4.06,4.71,31.84,6.69,44.88,6.69,11.61,0,29.14-1.16,30.14-4.87,1.49-5.52,0-7.26-.54-13.05s5.87-78.7,8.92-86.91C435.77,394.79,437.44,369.84,432.11,365.4Z"/><path class="cls-26" d="M401.92,344.15s-.07,11.17.73,12.45c1.29,2,4.24,2.34,4.24,2.34s.73,10.84-6,12.35c-14.73,3.32-26.39-11-26.39-11s3.39-1.27,3.74-2.32c2.35-7,.09-22.47.09-22.47"/><path class="cls-26" d="M396.41,293.16c2.87.78,13.26-4.37,15.35-1.23s6.67,23.91,7.81,28.2c.72,2.72,3.83,20.07-2.14,25.52-6.31,5.75-24,.6-26-.06-5.33-1.73-15.36-7.31-16.72-12.28l-.73-30.22Z"/><path class="cls-29" d="M405.7,501.15c6.62,1,9.07,3.46,12.8,7.14a1.38,1.38,0,0,1,.56,1.11c-.08.53-.7.76-1.23.85-3.08.49-3.58-1.48-6.45-2.68-1.95-.81-3.87-1.65-5.8-2.49"/><path class="cls-30" d="M373.81,594a11.84,11.84,0,0,0,9.91-5.32L526.92,372a11.86,11.86,0,0,0-19.78-13.08L363.93,575.62a11.87,11.87,0,0,0,9.88,18.4Z"/><path class="cls-31" d="M364.18,589.06a11.84,11.84,0,0,0,19.53-.37L526.94,372a11.87,11.87,0,0,0-3.38-16.44,8.4,8.4,0,0,0-2.09-1.06,11.79,11.79,0,0,1,.31,13.44L378.56,584.66a11.85,11.85,0,0,1-9.91,5.3A11.26,11.26,0,0,1,364.18,589.06Z"/><circle class="cls-32" cx="588.18" cy="258.54" r="109.9" transform="translate(-10.54 491.63) rotate(-45)"/><path class="cls-33" d="M502.73,215.29a95.78,95.78,0,0,1,151,113,95.76,95.76,0,1,0-151-113Z"/><path class="cls-34" d="M520,361a124,124,0,0,1-35.09-171.78h0A123.92,123.92,0,1,1,520,361ZM501.28,200.07h0a104.39,104.39,0,1,0,87.18-46.77A103.58,103.58,0,0,0,501.28,200.07Z"/><path class="cls-35" d="M516.23,366.64a130.72,130.72,0,0,1-37-181.15h0c39.73-60.14,121-76.74,181.14-37A130.74,130.74,0,0,1,516.23,366.64Zm-19.7-169.71h0a110.07,110.07,0,1,0,91.94-49.32A109.29,109.29,0,0,0,496.53,196.93Z"/><path class="cls-26" d="M387,495.89c5.14,1.08,18.83,5.16,20.27,5.84a60.35,60.35,0,0,1,8.73,6.45c5.15,5.17,2.52,7.58,4.55,14.59a4.15,4.15,0,0,1,.12,1.11c0,.73-1,1.36-2,.68-.53.9-2.13.35-2.9-.64,0,.7-1,1.15-2.54.27-.85-.47-.7-.43-2.67-2.18a20.45,20.45,0,0,0-5.57-3.39,40.54,40.54,0,0,1-5.44-2.49c-2.08-1.37-5.79-1.69-7.62-7.63-.4-1.31-1.69-2.12-2.85-2.85l-8.38-5.25"/><path class="cls-26" d="M315,464.7c2.56,7.46,25.73,20.87,43.46,27.83,15.61,6.12,27.82,11.31,27.82,11.31l12.88-4.72-12.8-9.1-44.22-31.9a219.89,219.89,0,0,0,8.95-30.51c-18-5.56-23-8.24-28-11C318,439.37,312.17,456.55,315,464.7Z"/><path class="cls-28" d="M362,398.05l-8.24-33.51s-11.81,2-17.21,9.12c-7.1,9.3-13.16,26.62-16.79,43,5,2.73,16.27,7.4,34,11.82C357.4,417.68,360.79,406.21,362,398.05Z"/><path class="cls-29" d="M407.83,515.28c.81.43,1.61.91,2.38,1.42.38.27.76.54,1.12.84a11.86,11.86,0,0,1,1,1,20.86,20.86,0,0,1,1.69,2.21c.52.76,1,1.54,1.49,2.34a29.74,29.74,0,0,1-3.7-4.1c-.3-.34-.57-.72-.88-1s-.67-.61-1-.9Z"/><path class="cls-29" d="M410.64,511.9a9.52,9.52,0,0,1,2.62,2.32c.38.45.75.9,1.09,1.38a7.5,7.5,0,0,1,.93,1.55c1,2.09,2.05,4.13,2.91,6.31a29.43,29.43,0,0,1-3.54-6,18,18,0,0,0-1.78-2.89A13.39,13.39,0,0,0,410.64,511.9Z"/><path class="cls-29" d="M413.87,509.16c.73.86,1.61,1.57,2.38,2.41a7.12,7.12,0,0,1,.58.64,5.24,5.24,0,0,1,.48.75c.27.5.54,1,.77,1.53a18.84,18.84,0,0,1,1.71,6.58c-.76-2.14-1.48-4.25-2.34-6.31l-.66-1.54a3.18,3.18,0,0,0-.37-.71c-.15-.22-.32-.44-.49-.66A25.86,25.86,0,0,1,413.87,509.16Z"/><path class="cls-26" d="M515.66,392.42s-2.63-6.75-3.43-8.51-1.66-3.37-2.17-3-.68,1.08-.4,2.45,1.83,5.82,1.83,5.82"/><path class="cls-26" d="M510.41,403.39a19.24,19.24,0,0,1,3.29-4.25c1.66-1.37,6.29-3.58,7.35-5.51s0-12.12-3.07-13.09-6.19,6.75-7.57,9.65-.31,7-.31,7L508,400.6A27.2,27.2,0,0,1,510.41,403.39Z"/><path class="cls-26" d="M520.17,383.44s-2-5-2.85-6.75-1.65-3.37-2.17-3a2.85,2.85,0,0,0-.53,2.79c.28,1.37,1.82,5.82,1.82,5.82"/><path class="cls-26" d="M518.81,386.65s-3.18-8.14-4.14-10.27-2-4.06-2.62-3.58-.82,1.3-.48,3,2.2,7,2.2,7"/><path class="cls-26" d="M516.65,388.87s-2.64-6.74-3.43-8.51-1.66-3.36-2.17-3-.69,1.09-.4,2.46,1.82,5.81,1.82,5.81"/><path class="cls-36" d="M417.42,273.47s-5.21,7.26-16.16,4-31.66-1.22-31.66,10.4c0,0-6.53-1.32-12,6.93-4.3,6.44-2.42,15.1-1.92,17.67,2,10.44,10.58,21.66,23.4,28.76l-.32-2.61s-4.49-9.82-1-15.71c3.93-5.1,8.37.71,11,3.16a.59.59,0,0,0,1-.42c.07-2.83-.9-4.41.95-9.37,2.1-5.67-1.17-10.27-2-11.52,0,0,13,2.34,21.7-4.82S417.42,273.47,417.42,273.47Z"/><path class="cls-37" d="M298.43,748.19a150,150,0,0,0,23.21,8.07l-4.86,10.64s-10.46.85-21.27-7.15Z"/><path class="cls-37" d="M401.87,759.59a156.73,156.73,0,0,0,25.69-1.29L427,771.08s-9.8,4.39-23.44.88Z"/><path class="cls-38" d="M328.76,420.71l12.56,3.71c2.09.62,4.19,1.19,6.28,1.77s4.21,1.07,6.32,1.54l-.86.49,3.16-9.11,1.61-4.55c.55-1.52,1.05-3,1.58-4.57-.24,1.6-.61,3.17-1,4.75s-.77,3.13-1.19,4.69c-.86,3.11-1.78,6.2-2.79,9.27l-.2.62-.65-.13a100.18,100.18,0,0,1-12.69-3.54c-2.07-.73-4.12-1.48-6.15-2.3S330.73,421.67,328.76,420.71Z"/><path class="cls-38" d="M430.86,393.61c0,3-.1,5.95-.16,8.92l-.33,8.9c-.24,5.94-.6,11.87-1,17.8s-.87,11.84-1.45,17.76l-.9,8.86c-.36,2.95-.69,5.91-1.11,8.85.08-3,.26-5.94.37-8.91l.47-8.89c.31-5.93.7-11.85,1.09-17.78s.83-11.84,1.34-17.76l.76-8.88C430.26,399.53,430.51,396.57,430.86,393.61Z"/><path class="cls-39" d="M407.3,781.48a1.18,1.18,0,0,0-.79,1,30.82,30.82,0,0,1-1.06,5.57,17,17,0,0,0-.17,9,2.44,2.44,0,0,0,2.35,1.73h40.31s5.81.06,5.92-3.75c.07-2.38-2-2.08-7-3.38s-17.35-8.92-22.62-9.32c0,0-3.48,3.81-7.46,3C413.26,784.62,409.55,780.8,407.3,781.48Z"/><path class="cls-39" d="M294.43,771.42s-1.67-.67-3.54,1.6-6.16,8.76-6.4,10.22,5.29,4.86,6.81,6.48,8.11,8.35,12.54,9.08,16.86.79,19.24,0,3.07-5.32-1.44-6.4-10.48-12.27-12.2-14c-1.12-1.13-3.39-2.84-8.68-1.75-2,.4-3.44,1.41-4.44.64C292.61,774.4,294.43,771.42,294.43,771.42Z"/><line class="cls-24" x1="474.85" y1="799.37" x2="197.68" y2="799.37"/><line class="cls-24" x1="482.49" y1="799.37" x2="529.75" y2="799.37"/><path class="cls-40" d="M731.9,152.7c-91.66,27.18-147.75,175.35-147.75,175.35-33.73-65.09-86.07-91.45-87.67-92.24,0,0-.05,0-.05,0,42.62,1.36,85.87,39.14,85.87,39.14C648.6,149.69,731.9,152.7,731.9,152.7Z"/><path class="cls-41" d="M731.9,152.7c-91.66,27.18-147.75,175.35-147.75,175.35-33.73-65.09-86.07-91.45-87.67-92.24,1.58.54,53.08,18.75,84.24,69C580.72,304.85,638.88,174.77,731.9,152.7Z"/><path class="cls-42" d="M0,261.35H172s10.57-44.79-28.24-50.16C112.38,206.85,79.85,248,79.85,248s1.2-24.36-15.09-24.55C40,223.11,28.19,249,28.19,249S3.65,237.78,0,261.35Z"/><path class="cls-42" d="M697.54,50.48h172S880.07,5.69,841.26.32C809.91-4,777.38,37.09,777.38,37.09s1.21-24.35-15.08-24.55c-24.74-.29-36.57,25.63-36.57,25.63S701.18,26.91,697.54,50.48Z"/><path class="cls-43" d="M265,116.46H542.47s17.06-72.29-45.57-80.95c-50.59-7-103.09,59.34-103.09,59.34s1.94-39.3-24.34-39.62c-39.92-.47-59,41.37-59,41.37S270.84,78.42,265,116.46Z"/><path class="cls-44" d="M911.5,135.35h272.3s16.74-70.93-44.71-79.43c-49.64-6.87-101.15,58.22-101.15,58.22s1.9-38.56-23.89-38.87c-39.17-.47-57.91,40.59-57.91,40.59S917.27,98,911.5,135.35Z"/></g></g></svg>