<svg width="24" height="24" viewBox="0 0 24 24" fill="none" xmlns="http://www.w3.org/2000/svg">
<g clip-path="url(#clip0_97_128)">
<path d="M11.9998 9.81812V14.4654H18.4579C18.1743 15.9599 17.3233 17.2254 16.047 18.0763L19.9415 21.0982C22.2106 19.0037 23.5197 15.9273 23.5197 12.2728C23.5197 11.4219 23.4433 10.6036 23.3015 9.81825L11.9998 9.81812Z" fill="#F4F4F4"/>
<path d="M5.27474 14.2839L4.39637 14.9563L1.28723 17.3781C3.26177 21.2944 7.30874 23.9999 11.9996 23.9999C15.2395 23.9999 17.9559 22.9308 19.9414 21.0981L16.0468 18.0763C14.9777 18.7963 13.6141 19.2327 11.9996 19.2327C8.87963 19.2327 6.2288 17.1273 5.27964 14.2909L5.27474 14.2839Z" fill="#F4F4F4"/>
<path d="M1.28718 6.62183C0.469042 8.23631 0 10.0581 0 11.9999C0 13.9417 0.469042 15.7636 1.28718 17.378C1.28718 17.3889 5.27997 14.2799 5.27997 14.2799C5.03998 13.5599 4.89812 12.7963 4.89812 11.9998C4.89812 11.2033 5.03998 10.4398 5.27997 9.71976L1.28718 6.62183Z" fill="#F4F4F4"/>
<path d="M11.9999 4.77818C13.7672 4.77818 15.338 5.38907 16.5926 6.56727L20.0289 3.13095C17.9453 1.18917 15.2399 0 11.9999 0C7.30899 0 3.26177 2.69454 1.28723 6.62183L5.2799 9.72001C6.22894 6.88362 8.87988 4.77818 11.9999 4.77818Z" fill="#F4F4F4"/>
</g>
<defs>
<clipPath id="clip0_97_128">
<rect width="24" height="24" fill="white"/>
</clipPath>
</defs>
</svg>
