<svg width="49" height="48" viewBox="0 0 49 48" fill="none" xmlns="http://www.w3.org/2000/svg">
<g clip-path="url(#clip0_156_220)">
<path d="M43.6878 25.2526C43.2727 25.2526 42.9362 25.5891 42.9362 26.0042V46.4969H6.76077V40.4343C6.76077 40.0192 6.4243 39.6827 6.00918 39.6827C5.59414 39.6827 5.25758 40.0191 5.25758 40.4343V47.2485C5.25758 47.6635 5.59405 48.0001 6.00918 48.0001H43.6877C44.1027 48.0001 44.4393 47.6636 44.4393 47.2485V26.0042C44.4394 25.5891 44.1028 25.2526 43.6878 25.2526Z" fill="#212121"/>
<path d="M48.5512 17.7896L25.3028 0.152813C25.0342 -0.0509064 24.6629 -0.0509064 24.3944 0.152813L15.1784 7.14423V4.70982H16.0302C16.4453 4.70982 16.7818 4.37335 16.7818 3.95823V0.751595C16.7818 0.336563 16.4454 0 16.0302 0H4.80675C4.39172 0 4.05516 0.336469 4.05516 0.751595V3.95832C4.05516 4.37335 4.39162 4.70992 4.80675 4.70992H5.65856V14.3662L1.1459 17.7896C0.888743 17.9846 0.784867 18.3221 0.887805 18.6279C0.990743 18.9338 1.27743 19.1399 1.60012 19.1399H5.25778V36.4259C5.25778 36.8409 5.59425 37.1775 6.00938 37.1775C6.42441 37.1775 6.76097 36.841 6.76097 36.4259V18.3883C6.76097 17.9733 6.4245 17.6368 6.00938 17.6368H3.83437L24.8485 1.69491L45.8628 17.6368H43.6878C43.2727 17.6368 42.9362 17.9732 42.9362 18.3883V21.9959C42.9362 22.4109 43.2726 22.7475 43.6878 22.7475C44.1028 22.7475 44.4394 22.411 44.4394 21.9959V19.1399H48.097C48.4198 19.1399 48.7065 18.9339 48.8093 18.628C48.9123 18.3221 48.8083 17.9846 48.5512 17.7896ZM5.55835 3.20673V1.50319H15.2786V3.20673H5.55835ZM13.6752 8.28452L7.16166 13.2258V4.70982H13.6752V8.28452Z" fill="#212121"/>
<path d="M41.1234 41.3451L35.5117 35.7334C34.8426 35.0642 33.8012 34.8855 32.9468 35.2942L29.2323 31.5798C30.8773 29.5289 31.863 26.9276 31.863 24.1001C31.863 21.397 30.984 18.8457 29.3209 16.7223C29.065 16.3955 28.5925 16.3381 28.2658 16.594C27.939 16.85 27.8817 17.3224 28.1376 17.6491C29.5915 19.5054 30.36 21.7362 30.36 24.1001C30.36 29.8744 25.6625 34.5719 19.8882 34.5719C14.114 34.5719 9.41634 29.8744 9.41634 24.1002C9.41634 18.3261 14.1141 13.6284 19.8881 13.6284C21.7864 13.6284 23.6454 14.1414 25.2642 15.1118C25.6202 15.3252 26.0817 15.2094 26.2952 14.8535C26.5087 14.4975 26.393 14.0359 26.0369 13.8225C24.1848 12.7122 22.0585 12.1252 19.8881 12.1252C13.2851 12.1252 7.91315 17.4971 7.91315 24.1002C7.91315 30.7033 13.2851 36.0751 19.8881 36.0751C23.1234 36.0751 26.0625 34.7849 28.2196 32.6928L31.8847 36.3579C31.4861 37.1956 31.6305 38.2295 32.3231 38.922L37.9348 44.5337C38.8038 45.403 40.2543 45.403 41.1234 44.5337C42.0025 43.6546 42.0025 42.2241 41.1234 41.3451ZM40.1004 43.4279C39.8194 43.7563 39.3033 43.7765 38.9977 43.4709L33.386 37.8592C33.1126 37.5858 33.0947 37.1333 33.3463 36.8394C33.6272 36.511 34.1432 36.4907 34.4489 36.7964L40.0606 42.4081C40.3339 42.6814 40.3519 43.134 40.1004 43.4279Z" fill="#F26124"/>
<path d="M19.8881 15.332C15.0533 15.332 11.1199 19.2654 11.1199 24.1003C11.1199 28.9352 15.0533 32.8686 19.8881 32.8686C24.7229 32.8686 28.6564 28.9352 28.6564 24.1003C28.6564 19.2654 24.723 15.332 19.8881 15.332ZM19.8881 31.3654C15.8821 31.3654 12.623 28.1062 12.623 24.1002C12.623 20.0942 15.8822 16.835 19.8881 16.835C23.8941 16.835 27.1533 20.0942 27.1533 24.1002C27.1533 28.1062 23.8942 31.3654 19.8881 31.3654Z" fill="#F26124"/>
<path d="M26.1787 23.7777C25.1939 21.7051 22.4896 20.1421 19.8881 20.1421C17.2867 20.1421 14.5825 21.7052 13.5976 23.7778C13.5007 23.9819 13.5007 24.2188 13.5976 24.423C14.5825 26.4956 17.2867 28.0585 19.8881 28.0585C22.4896 28.0585 25.1939 26.4954 26.1787 24.4229C26.2755 24.2187 26.2755 23.9818 26.1787 23.7777ZM17.3367 25.9556C16.4018 25.5128 15.6002 24.8572 15.1316 24.1002C15.6003 23.3434 16.4019 22.6879 17.3367 22.2448C16.9567 22.766 16.7317 23.4071 16.7317 24.1002C16.7317 24.7933 16.9568 25.4345 17.3367 25.9556ZM19.8881 25.7537C18.9764 25.7537 18.2347 25.0119 18.2347 24.1002C18.2347 23.1885 18.9764 22.4467 19.8881 22.4467C20.7999 22.4467 21.5416 23.1885 21.5416 24.1002C21.5416 25.0119 20.7999 25.7537 19.8881 25.7537ZM22.4397 25.9556C22.8197 25.4345 23.0447 24.7933 23.0447 24.1002C23.0447 23.4071 22.8196 22.7661 22.4397 22.2448C23.3746 22.6879 24.1761 23.3433 24.6448 24.1002C24.1761 24.8572 23.3745 25.5127 22.4397 25.9556Z" fill="#212121"/>
</g>
<defs>
<clipPath id="clip0_156_220">
<rect width="48" height="48" fill="white" transform="translate(0.848511)"/>
</clipPath>
</defs>
</svg>
