<svg width="49" height="48" viewBox="0 0 49 48" fill="none" xmlns="http://www.w3.org/2000/svg">
<g clip-path="url(#clip0_156_239)">
<path d="M33.31 34.716L41.557 26.469C41.566 26.6445 41.5855 26.811 41.644 26.952C41.764 27.2415 42.058 27.504 42.382 27.765L34.6165 35.5305C34.3555 35.208 34.0945 34.914 33.8035 34.7925C33.661 34.737 33.487 34.725 33.31 34.716ZM30.553 31.5465C30.7735 32.079 30.5545 32.916 30.5365 33.6105L40.465 23.682C39.997 23.694 39.46 23.802 38.9995 23.802C38.776 23.802 38.569 23.7765 38.3935 23.7045C38.3785 23.6985 38.3635 23.6835 38.347 23.676L30.526 31.5C30.5335 31.5165 30.547 31.5315 30.553 31.5465ZM30.553 26.9535C30.223 27.75 28.5985 28.335 28.5985 29.25C28.5985 29.3355 28.615 29.4255 28.6405 29.5065L36.355 21.792C36.2755 21.765 36.184 21.75 36.0985 21.75C35.1835 21.75 34.5985 23.3745 33.802 23.7045C33.628 23.7765 33.421 23.802 33.1975 23.802C32.9125 23.802 32.602 23.766 32.2945 23.733L30.5785 25.449C30.637 25.9965 30.7165 26.559 30.553 26.9535ZM40.549 34.8165C40.894 34.8165 41.1985 34.7565 41.4025 34.554C41.8345 34.122 41.6215 33.24 41.563 32.463L39.3055 34.7205C39.718 34.7505 40.156 34.8165 40.549 34.8165ZM38.002 42.024L39.181 42.966L39.8485 42.2985V40.1775L38.002 42.024ZM32.3485 36.2655V37.7985L33.547 36.6C33.439 36.4635 33.3055 36.2955 33.2095 36.198C33.205 36.198 33.199 36.198 33.1945 36.198C33.0025 36.198 32.794 36.225 32.5855 36.2475L32.3485 36.2655ZM39.61 36.2475C39.4015 36.2235 39.193 36.198 39.001 36.198C38.9965 36.198 38.992 36.198 38.9875 36.198C38.8825 36.306 38.725 36.5055 38.6125 36.6465C38.107 37.2855 37.3435 38.25 36.0985 38.25C35.995 38.25 35.9005 38.2335 35.8045 38.2215L32.3485 41.6775V43.5L33.841 42.306L39.8485 36.2985V36.2655C39.7705 36.258 39.682 36.2565 39.61 36.2475Z" fill="#F26124"/>
<path d="M36.0985 15H6.09851C5.68451 15 5.34851 14.664 5.34851 14.25C5.34851 13.836 5.68451 13.5 6.09851 13.5H36.0985C36.5125 13.5 36.8485 13.836 36.8485 14.25C36.8485 14.664 36.5125 15 36.0985 15ZM21.8485 18.75C21.8485 18.336 21.5125 18 21.0985 18H6.09851C5.68451 18 5.34851 18.336 5.34851 18.75C5.34851 19.164 5.68451 19.5 6.09851 19.5H21.0985C21.5125 19.5 21.8485 19.164 21.8485 18.75ZM21.8485 23.25C21.8485 22.836 21.5125 22.5 21.0985 22.5H6.09851C5.68451 22.5 5.34851 22.836 5.34851 23.25C5.34851 23.664 5.68451 24 6.09851 24H21.0985C21.5125 24 21.8485 23.664 21.8485 23.25ZM21.8485 35.25C21.8485 34.836 21.5125 34.5 21.0985 34.5H6.09851C5.68451 34.5 5.34851 34.836 5.34851 35.25C5.34851 35.664 5.68451 36 6.09851 36H21.0985C21.5125 36 21.8485 35.664 21.8485 35.25ZM48.8485 10.5V39C48.8485 39.828 48.1765 40.5 47.3485 40.5H41.3485V43.5C41.3485 44.076 41.0185 44.6025 40.498 44.8515C40.291 44.952 40.069 45 39.8485 45C39.514 45 39.1825 44.8875 38.911 44.6715L36.0985 42.4215L33.286 44.6715C33.0145 44.8875 32.683 45 32.3485 45C32.128 45 31.906 44.952 31.699 44.8515C31.1785 44.6025 30.8485 44.076 30.8485 43.5V40.5H2.34851C1.52051 40.5 0.848511 39.828 0.848511 39V10.5C0.848511 9.672 1.52051 9 2.34851 9H47.3485C48.1765 9 48.8485 9.672 48.8485 10.5ZM39.8485 36.2655C39.7705 36.258 39.682 36.2565 39.61 36.2475C39.4015 36.2235 39.193 36.198 39.001 36.198C38.9965 36.198 38.992 36.198 38.9875 36.198C38.8825 36.306 38.725 36.5055 38.6125 36.6465C38.107 37.2855 37.3435 38.25 36.0985 38.25C34.8535 38.25 34.09 37.2855 33.586 36.6465C33.475 36.5055 33.3175 36.306 33.211 36.198C33.2065 36.198 33.202 36.198 33.1975 36.198C33.0055 36.198 32.797 36.225 32.5885 36.2475C32.515 36.255 32.4265 36.2565 32.35 36.2655V43.5L36.1 40.5L39.85 43.5L39.8485 36.2655ZM41.401 34.554C42.022 33.933 41.3005 32.3715 41.6425 31.5465C41.974 30.75 43.5985 30.165 43.5985 29.25C43.5985 28.335 41.974 27.75 41.644 26.9535C41.302 26.1285 42.0235 24.5685 41.4025 23.9475C41.1985 23.7435 40.8955 23.685 40.549 23.685C40.0615 23.685 39.49 23.8035 39.001 23.8035C38.7775 23.8035 38.5705 23.778 38.395 23.706C37.5985 23.3745 37.0135 21.75 36.0985 21.75C35.1835 21.75 34.5985 23.3745 33.802 23.7045C33.628 23.7765 33.421 23.802 33.1975 23.802C32.7085 23.802 32.137 23.6835 31.6495 23.6835C31.3045 23.6835 31 23.7435 30.796 23.946C30.175 24.567 30.8965 26.1285 30.5545 26.9535C30.223 27.75 28.5985 28.335 28.5985 29.25C28.5985 30.165 30.223 30.75 30.553 31.5465C30.895 32.3715 30.1735 33.9315 30.7945 34.5525C30.9985 34.7565 31.3015 34.815 31.648 34.815C32.1355 34.815 32.707 34.6965 33.196 34.6965C33.4195 34.6965 33.6265 34.722 33.802 34.794C34.5985 35.1255 35.1835 36.75 36.0985 36.75C37.0135 36.75 37.5985 35.1255 38.395 34.7955C38.569 34.7235 38.776 34.698 38.9995 34.698C39.4885 34.698 40.06 34.8165 40.5475 34.8165C40.894 34.8165 41.1985 34.7565 41.401 34.554ZM47.3485 10.5H2.34851V39H30.8485V36.213C30.4105 36.105 30.0325 35.9115 29.734 35.613C28.8775 34.7565 29.0065 33.603 29.0995 32.76C29.122 32.5545 29.1565 32.256 29.1655 32.151C29.062 32.046 28.8505 31.878 28.702 31.761C28.063 31.2585 27.0985 30.495 27.0985 29.25C27.0985 28.005 28.063 27.2415 28.702 26.736C28.843 26.6235 29.0425 26.466 29.1505 26.361C29.152 26.202 29.1205 25.9305 29.0995 25.7385C29.005 24.8955 28.876 23.742 29.734 22.8855C30.2005 22.419 30.844 22.1835 31.648 22.1835C31.975 22.1835 32.3005 22.2195 32.587 22.2525C32.7955 22.2765 33.004 22.302 33.196 22.302C33.2005 22.302 33.205 22.302 33.211 22.302C33.316 22.194 33.4735 21.9945 33.586 21.8535C34.09 21.2145 34.8535 20.25 36.0985 20.25C37.3435 20.25 38.107 21.2145 38.611 21.8535C38.722 21.9945 38.8795 22.194 38.986 22.302C38.9905 22.302 38.995 22.302 38.9995 22.302C39.1915 22.302 39.4 22.275 39.6085 22.2525C39.895 22.221 40.2205 22.1835 40.5475 22.1835C41.3515 22.1835 41.995 22.4205 42.4615 22.8855C43.318 23.742 43.189 24.897 43.096 25.7385C43.0735 25.944 43.039 26.2425 43.0315 26.346C43.135 26.451 43.3465 26.619 43.495 26.736C44.134 27.2415 45.0985 28.005 45.0985 29.25C45.0985 30.495 44.134 31.2585 43.495 31.7625C43.354 31.875 43.1545 32.0325 43.0465 32.1375C43.045 32.2965 43.0765 32.568 43.0975 32.76C43.192 33.603 43.321 34.7565 42.463 35.613C42.166 35.91 41.788 36.1035 41.3485 36.2115V39H47.3485V10.5Z" fill="#212121"/>
</g>
<defs>
<clipPath id="clip0_156_239">
<rect width="48" height="48" fill="white" transform="translate(0.848511)"/>
</clipPath>
</defs>
</svg>
