<svg width="49" height="48" viewBox="0 0 49 48" fill="none" xmlns="http://www.w3.org/2000/svg">
<g clip-path="url(#clip0_156_231)">
<path d="M47.6878 29.4401C46.2478 27.5201 44.8078 27.5201 41.2878 29.3601L34.4077 33.6C33.4477 34.16 31.2877 34.32 29.2878 34.32C29.6878 33.6 29.5278 32.72 28.8078 31.68C27.5278 29.84 25.3678 28.7201 23.0478 28.7201H19.9278C18.2478 28.7201 16.6477 28.2401 15.3678 27.2801C12.4811 25.1151 7.96713 27.4709 5.76775 28.876V27.2001H0.167786V48H5.76775V45.6H16.1677C17.7678 45.6 19.4478 45.44 21.0477 45.36L31.4477 43.76C31.8477 43.76 32.2476 43.68 32.5677 43.6C33.5277 43.44 34.4077 42.9599 35.2077 42.2399L47.2877 32.6399C48.2477 31.8401 48.4078 30.4001 47.6878 29.4401ZM4.16772 46.4H1.76772V28.8H4.16772V30V45.6V46.4ZM46.3278 31.52L34.1677 40.9601L34.0877 41.04C33.6077 41.6 32.9677 41.9201 32.2477 42C31.9277 42.08 31.6877 42.08 31.3677 42.08L20.8077 43.68C19.2877 43.92 17.6877 44 16.1677 44H5.76775V30.8C7.68775 29.44 12.1678 26.88 14.4078 28.64C15.9277 29.76 17.8477 30.4 19.9278 30.4H23.0478C24.8878 30.4 26.5678 31.2 27.6078 32.72C27.9277 33.2 28.0078 33.68 27.9277 33.84C27.6877 34.2401 26.7277 34.4 25.6877 34.4801C25.4653 34.4801 25.2434 34.4801 25.0477 34.4801C24.962 34.4801 24.8808 34.4801 24.8077 34.4801H17.2878C14.8078 34.4801 13.2877 35.6801 13.2877 37.68C13.2877 38.16 13.6077 38.48 14.0877 38.48C14.5677 38.48 14.8877 38.16 14.8877 37.68C14.8877 37.28 14.8877 36.08 17.2877 36.08H24.7277C24.9677 36.08 25.2876 36.08 25.7676 36.08C25.8476 36.08 26.0076 36.08 26.1677 36.08C29.9277 36.16 33.4476 36.08 35.2877 35.12L42.1677 30.88C45.5277 29.2 45.8477 29.6 46.4877 30.56C46.6477 30.8 46.6477 31.28 46.3278 31.52Z" fill="#212121"/>
<path d="M30.0077 22.96C30.1678 23.12 30.3277 23.2 30.5677 23.2C30.8077 23.2 30.9677 23.12 31.1277 22.96L33.5277 20.56C33.8477 20.24 33.8477 19.76 33.5277 19.44C33.2077 19.1199 32.7277 19.12 32.4077 19.44L30.0077 21.84C29.6878 22.1599 29.6878 22.6399 30.0077 22.96Z" fill="#F26124"/>
<path d="M27.6078 19.44C27.2878 19.76 27.2878 20.24 27.6078 20.5601C27.7678 20.7201 27.9277 20.8001 28.1677 20.8001C28.4077 20.8001 28.5678 20.7201 28.7277 20.5601L31.1277 18.1601C31.4477 17.8401 31.4477 17.3601 31.1277 17.04C30.8077 16.7201 30.3277 16.7201 30.0077 17.04L27.6078 19.44Z" fill="#F26124"/>
<path d="M16.9678 11.9347V24.8001C16.9678 25.0401 17.0478 25.2001 17.2078 25.36L19.6878 27.76C19.8478 27.9201 20.0078 28 20.2478 28C20.4078 28 20.6478 27.9201 20.8077 27.76L23.1278 25.36C23.2878 25.2 23.3678 25.0401 23.3678 24.8001V24C23.3678 23.76 23.2878 23.6 23.1278 23.44L22.0878 22.4001L23.1278 21.3601C23.2878 21.2001 23.3678 21.0401 23.3678 20.8001L29.2077 26.6401C29.6877 27.0401 30.2477 27.2801 30.8078 27.2801C31.2878 27.2801 31.7678 27.1201 32.1678 26.7202L38.8078 20.0801C39.2079 19.6801 39.3678 19.1201 39.3678 18.5602C39.3678 18.0002 39.1278 17.5202 38.7278 17.1202L31.5468 9.93919C31.9604 9.07781 32.1678 8.16488 32.1678 7.20009C32.1678 3.68006 29.2878 0.800063 25.7678 0.800063C25.1069 0.800063 24.4461 0.911062 23.7852 1.12941C22.7544 0.418219 21.5078 0 20.1678 0C16.6478 0 13.7678 2.88 13.7678 6.40003C13.7678 8.75606 15.059 10.8238 16.9678 11.9347ZM21.7678 20.48L20.4078 21.84C20.0878 22.16 20.0878 22.64 20.4078 22.96L21.7678 24.3201V24.4801L20.1678 26.0801L18.5678 24.48V12.64C18.9678 12.72 19.3677 12.8001 19.7678 12.8001L20.4078 16.6401C20.4878 17.5201 20.9678 18.4 21.6078 19.0401L21.7678 19.2001V20.48ZM37.7678 18.64C37.7678 18.72 37.7678 18.8001 37.6878 18.88L31.0478 25.5201C30.8877 25.6801 30.5678 25.6801 30.3278 25.4401L22.7277 17.8401C22.3277 17.44 22.0077 16.8801 21.9278 16.3201L21.4878 13.3201L21.2878 11.92C21.2878 11.9183 21.2875 11.9167 21.2875 11.9151C21.2877 11.8901 21.2878 11.8651 21.2878 11.8401L21.2726 11.7437C22.4306 12.8895 24.0201 13.6 25.7679 13.6C26.2479 13.6 26.5678 13.2801 26.5678 12.8001C26.5678 12.3201 26.2478 12 25.7678 12C23.8523 12 22.1904 10.8624 21.4219 9.22988C21.5433 9.12431 21.6967 9.03881 21.866 8.98847C21.9632 8.96944 22.0652 8.95997 22.1678 8.95997C22.233 8.95997 22.299 8.95997 22.4078 8.95997L25.2078 9.36C25.2387 9.36619 25.269 9.36984 25.2989 9.37228L28.4878 9.84C29.0478 9.91997 29.6079 10.24 30.0078 10.64L37.6078 18.24C37.6878 18.32 37.7678 18.48 37.7678 18.64ZM25.7678 2.4C28.4078 2.4 30.5678 4.56 30.5678 7.2C30.5678 7.75997 30.4878 8.32003 30.3278 8.80003C29.8478 8.56003 29.2878 8.32003 28.7277 8.24006L26.4077 7.92009C26.427 7.80422 26.4463 7.68825 26.4645 7.57116C26.5182 7.2705 26.5509 6.96384 26.562 6.64781C26.5654 6.56672 26.5677 6.48459 26.5677 6.40012C26.5677 6.29841 26.5647 6.19678 26.5599 6.09525C26.5586 6.06806 26.5566 6.04106 26.5549 6.01387C26.5502 5.93484 26.5443 5.856 26.5367 5.77725C26.5347 5.75709 26.5326 5.73694 26.5304 5.71678C26.404 4.51181 25.9481 3.34256 25.2076 2.40009C25.3678 2.4 25.6078 2.4 25.7678 2.4ZM20.1678 1.60003C21.2359 1.60003 22.2252 1.95384 23.025 2.54972C23.0558 2.583 23.089 2.61413 23.1279 2.64009C23.8734 3.23653 24.4023 3.98738 24.6964 4.81584C24.7018 4.83122 24.7069 4.84669 24.7121 4.86206C24.733 4.923 24.7526 4.98441 24.771 5.04619C24.7792 5.07375 24.787 5.1015 24.7947 5.12925C24.8089 5.18044 24.8221 5.23181 24.8346 5.28347C24.8426 5.31684 24.8506 5.35022 24.8579 5.38378C24.8684 5.43178 24.8777 5.48006 24.8867 5.52844C24.8933 5.56406 24.9001 5.59959 24.9059 5.6355C24.9139 5.68453 24.9203 5.73384 24.9267 5.78325C24.9312 5.81812 24.9364 5.85281 24.9401 5.88788C24.946 5.943 24.9501 5.9985 24.9541 6.05391C24.9563 6.08344 24.9593 6.11278 24.9609 6.1425C24.9654 6.228 24.968 6.31387 24.968 6.40003C24.968 6.47616 24.9654 6.55228 24.9613 6.62822C24.9609 6.63787 24.9602 6.64744 24.9596 6.657C24.9554 6.72619 24.9499 6.79519 24.9429 6.864C24.9421 6.87197 24.9414 6.88022 24.9406 6.88819C24.9373 6.91959 24.933 6.95062 24.9293 6.98184C24.8985 7.22419 24.8535 7.45237 24.8079 7.68L22.6479 7.36003C22.0724 7.30772 21.4973 7.39341 20.9889 7.63716C20.9756 7.49306 20.9679 7.34738 20.9679 7.2C20.9679 6.48 21.128 5.76 21.4479 5.11997C21.608 4.71994 21.4479 4.23994 21.0479 4.08C20.6479 3.91997 20.1679 4.08 20.0079 4.48003C19.6079 5.28 19.3679 6.24 19.3679 7.2C19.3679 7.83113 19.4619 8.44106 19.6342 9.01819C19.4273 9.49444 19.3535 10.0409 19.4479 10.56L19.5279 11.12C19.4669 11.1137 19.4064 11.1053 19.3462 11.0965C18.9452 11.017 18.5563 10.8926 18.1678 10.7199C18.1255 10.7059 18.0802 10.6953 18.0338 10.6866C16.4656 9.91481 15.3679 8.25319 15.3679 6.39994C15.3678 3.76003 17.5278 1.60003 20.1678 1.60003Z" fill="#F26124"/>
</g>
<defs>
<clipPath id="clip0_156_231">
<rect width="48" height="48" fill="white" transform="translate(0.151489)"/>
</clipPath>
</defs>
</svg>
