<svg width="49" height="48" viewBox="0 0 49 48" fill="none" xmlns="http://www.w3.org/2000/svg">
<g clip-path="url(#clip0_156_243)">
<path d="M43.812 35.0138L43.1902 34.8068C46.7625 33.7298 47.3587 31.0395 47.3872 30.8977L47.4862 30.405L47.0677 30.1267C44.4585 28.3867 42.9015 25.4767 42.9015 22.3417V16.5C42.9015 10.2968 37.8547 5.25 31.6515 5.25C29.8012 5.25 28.0125 5.703 26.4015 6.5565V3C26.4015 1.7595 25.392 0.75 24.1515 0.75H3.15149C1.91099 0.75 0.901489 1.7595 0.901489 3V12C0.901489 13.2405 1.91099 14.25 3.15149 14.25H11.1742L16.6515 17.9017V14.25H20.6317C20.4817 14.9873 20.4015 15.7395 20.4015 16.5V22.3417C20.4015 25.4767 18.8445 28.3867 16.2352 30.126L15.8167 30.4043L15.9157 30.897C15.9435 31.0387 16.5397 33.729 20.1127 34.806L19.491 35.013C17.3445 35.7285 15.9015 37.7303 15.9015 39.993V47.25H47.4015V39.993C47.4015 37.7303 45.9585 35.7285 43.812 35.0138ZM45.7567 31.0365C45.354 31.8983 44.0242 33.7125 40.0132 33.747L36.1515 32.4592V30.9053C38.0227 29.682 39.3637 27.7208 39.768 25.437C40.4812 25.3178 41.1217 24.9968 41.6392 24.5348C42.1695 27.117 43.6125 29.4352 45.7567 31.0365ZM27.699 33.858L30.6082 36.7673C30.0697 37.236 29.3857 37.5 28.6515 37.5C27.0105 37.5 25.677 36.1755 25.6552 34.539L27.699 33.858ZM31.7985 20.235C34.1197 19.7708 36.3375 18.9555 38.4015 17.8095V24C38.4015 27.7222 35.3737 30.75 31.6515 30.75C27.9292 30.75 24.9015 27.7222 24.9015 24V19.488C27.189 19.4017 29.4315 18.8415 31.4865 17.8463C31.3867 18.2467 31.2442 18.6367 31.0597 19.0057L30.2947 20.5358L31.7985 20.235ZM31.6515 32.25C32.7105 32.25 33.72 32.0422 34.6515 31.677V32.6895L31.6515 35.6895L28.6515 32.6895V31.677C29.583 32.0422 30.5925 32.25 31.6515 32.25ZM30.9015 38.3932C31.1685 38.2388 31.419 38.0565 31.6515 37.8473C31.884 38.0565 32.1345 38.238 32.4015 38.3932V42.2865L31.6515 42.6615L30.9015 42.2865V38.3932ZM32.6947 36.7673L35.604 33.858L37.6477 34.539C37.626 36.1755 36.2925 37.5 34.6515 37.5C33.9172 37.5 33.2332 37.236 32.6947 36.7673ZM39.9015 19.638C40.7722 19.9485 41.4015 20.7735 41.4015 21.75C41.4015 22.7265 40.7722 23.5515 39.9015 23.862V19.638ZM15.1515 12.75V15.0983L11.6287 12.75H3.15149C2.73749 12.75 2.40149 12.4132 2.40149 12V3C2.40149 2.58675 2.73749 2.25 3.15149 2.25H24.1515C24.5655 2.25 24.9015 2.58675 24.9015 3V12C24.9015 12.4132 24.5655 12.75 24.1515 12.75H15.1515ZM24.1515 14.25C25.392 14.25 26.4015 13.2405 26.4015 12V8.2905C27.969 7.2855 29.7735 6.75 31.6515 6.75C37.0275 6.75 41.4015 11.124 41.4015 16.5V18.7695C40.9635 18.438 40.4587 18.1897 39.9015 18.0765V15.1763L38.2942 16.14C36.597 17.1585 34.7805 17.9303 32.8792 18.4425C33.0592 17.811 33.1515 17.1555 33.1515 16.5V15.1755L32.0152 15.8573C29.8567 17.1525 27.4095 17.883 24.9015 17.9872V16.5H23.4015V18.0758C22.8442 18.1898 22.3395 18.4373 21.9015 18.7687V16.5C21.9015 15.7373 21.993 14.9835 22.1662 14.25H24.1515ZM21.9015 21.75C21.9015 20.7735 22.5307 19.9485 23.4015 19.638V23.8612C22.5307 23.5515 21.9015 22.7265 21.9015 21.75ZM17.5455 31.0365C19.6905 29.4345 21.1342 27.114 21.6645 24.531C22.1797 24.99 22.818 25.3118 23.5342 25.4355C23.937 27.72 25.2787 29.682 27.1507 30.906V32.46L23.2897 33.747C19.2735 33.7125 17.946 31.8937 17.5455 31.0365ZM45.9015 45.75H41.703C42.4642 44.9437 42.9015 43.86 42.9015 42.75C42.9015 41.5995 42.435 40.473 41.6212 39.6593L41.4015 39.4395V38.25H39.9015V40.0605L40.5607 40.7197C41.0955 41.2545 41.4015 41.994 41.4015 42.75C41.4015 43.506 41.0955 44.2455 40.5607 44.7803L39.9015 45.4395V45.75H23.4015V45.4395L22.7422 44.7803C22.2075 44.2455 21.9015 43.506 21.9015 42.75C21.9015 41.994 22.2075 41.2545 22.7422 40.7197L23.4015 40.0605V38.25H21.9015V39.4395L21.6817 39.6593C20.868 40.473 20.4015 41.5995 20.4015 42.75C20.4015 43.86 20.8387 44.9437 21.6 45.75H17.4015V39.993C17.4015 38.3768 18.432 36.9465 19.9657 36.4358L24.1852 35.0295C24.4485 37.2615 26.349 39 28.6515 39C28.9065 39 29.1555 38.9723 29.4015 38.931V43.2135L31.6515 44.3385L33.9015 43.2135V38.931C34.1475 38.9723 34.3965 39 34.6515 39C36.954 39 38.8545 37.2615 39.1177 35.0295L43.3372 36.4358C44.871 36.9473 45.9015 38.3768 45.9015 39.993V45.75Z" fill="#212121"/>
<path d="M27.9015 21.75C28.3157 21.75 28.6515 21.4142 28.6515 21C28.6515 20.5858 28.3157 20.25 27.9015 20.25C27.4873 20.25 27.1515 20.5858 27.1515 21C27.1515 21.4142 27.4873 21.75 27.9015 21.75Z" fill="#212121"/>
<path d="M35.4015 21.75C35.8157 21.75 36.1515 21.4142 36.1515 21C36.1515 20.5858 35.8157 20.25 35.4015 20.25C34.9873 20.25 34.6515 20.5858 34.6515 21C34.6515 21.4142 34.9873 21.75 35.4015 21.75Z" fill="#212121"/>
<path d="M28.6515 25.5C28.6515 27.1545 29.997 28.5 31.6515 28.5C33.306 28.5 34.6515 27.1545 34.6515 25.5H33.1515C33.1515 26.3273 32.4787 27 31.6515 27C30.8242 27 30.1515 26.3273 30.1515 25.5H28.6515Z" fill="#212121"/>
<path d="M6.15149 5.25C6.56549 5.25 6.90149 5.58675 6.90149 6H8.40149C8.40149 4.7595 7.39199 3.75 6.15149 3.75C4.91099 3.75 3.90149 4.7595 3.90149 6C3.90149 7.2405 4.91099 8.25 6.15149 8.25C6.56549 8.25 6.90149 8.58675 6.90149 9C6.90149 9.41325 6.56549 9.75 6.15149 9.75C5.73749 9.75 5.40149 9.41325 5.40149 9H3.90149C3.90149 10.2405 4.91099 11.25 6.15149 11.25C7.39199 11.25 8.40149 10.2405 8.40149 9C8.40149 7.7595 7.39199 6.75 6.15149 6.75C5.73749 6.75 5.40149 6.41325 5.40149 6C5.40149 5.58675 5.73749 5.25 6.15149 5.25Z" fill="#F26124"/>
<path d="M11.7765 3.75C10.329 3.75 9.15149 4.9275 9.15149 6.375V11.25H10.6515V9.75H12.9015V11.25H14.4015V6.375C14.4015 4.9275 13.224 3.75 11.7765 3.75ZM10.6515 8.25V6.375C10.6515 5.75475 11.1562 5.25 11.7765 5.25C12.3967 5.25 12.9015 5.75475 12.9015 6.375V8.25H10.6515Z" fill="#F26124"/>
<path d="M16.6515 3.75H15.1515V11.25H18.9015V9.75H16.6515V3.75Z" fill="#F26124"/>
<path d="M19.6515 11.25H23.4015V9.75H21.1515V8.25H23.4015V6.75H21.1515V5.25H23.4015V3.75H19.6515V11.25Z" fill="#F26124"/>
</g>
<defs>
<clipPath id="clip0_156_243">
<rect width="48" height="48" fill="white" transform="translate(0.151489)"/>
</clipPath>
</defs>
</svg>
